<?xml version="1.0" standalone="no"?>
<!DOCTYPE svg PUBLIC "-//W3C//DTD SVG 1.1//EN" "http://www.w3.org/Graphics/SVG/1.1/DTD/svg11.dtd" >
<svg xmlns="http://www.w3.org/2000/svg" xmlns:xlink="http://www.w3.org/1999/xlink" version="1.1">
<metadata>
Created by FontForge 20170910 at Sat Apr 21 09:33:10 2012
 By Jimmy Wärting
1998 by Boba Fonts - Davide Canavero - canavero@pianeta.net
</metadata>
<defs>
<font id="StarJediOutline" horiz-adv-x="0" >
  <font-face 
    font-family="Star Jedi Outline"
    font-weight="400"
    font-stretch="normal"
    units-per-em="2048"
    panose-1="4 11 0 0 0 0 0 0 0 0"
    ascent="1638"
    descent="-410"
    x-height="1444"
    cap-height="1444"
    bbox="-1936 -708 5603 2560"
    underline-thickness="50"
    underline-position="-125"
    unicode-range="U+0020-201D"
  />
<missing-glyph horiz-adv-x="3072" 
d="M512 0v2560h2048v-2560h-2048zM2494 66v2428h-1916v-2428h1916z" />
    <glyph glyph-name=".notdef" horiz-adv-x="3072" 
d="M512 0v2560h2048v-2560h-2048zM2494 66v2428h-1916v-2428h1916z" />
    <glyph glyph-name="NULL" 
 />
    <glyph glyph-name="nonmarkingreturn" 
 />
    <glyph glyph-name="grave" unicode="`" horiz-adv-x="1615" 
d="M-20 1014v430h1212l483 -1444h-546l-91 260h-429l-91 -260h-518l333 1014h-353zM84 60h394l93 260h515l94 -260h413l-440 1324h-1113v-310h382zM708 612h238l-110 322zM172 128l340 1008h-408v184h996l412 -1192h-284l-100 256h-600l-92 -256h-264zM838 1057l186 -489
h-386zM840 1181l-282 -671h549z" />
    <glyph glyph-name="one" unicode="1" horiz-adv-x="1065" 
d="M119 705l-146 376l539 363h440v-1444h-516v938zM536 1328h300v-1200h-284v1012l-386 -278l-66 174zM524 1384l-484 -327l106 -270l350 257v-984h396v1324h-368z" />
    <glyph glyph-name="two" unicode="2" horiz-adv-x="1212" 
d="M586 348h585v-348h-1130v406q236 118 418 235q91 63 143.5 124t52.5 142q0 104 -77 152.5t-189 48.5q-177 0 -319 -61v376q114 21 226 33t226 12q275 0 462 -108t187 -365q0 -117 -52.5 -215t-135.5 -173.5t-171 -129.5t-226 -125v-4zM182 1334q230 26 342 26
q232 -10 369 -90t167 -274q-4 -108 -46 -181t-105 -134t-136 -115t-441 -276v-46l727 -1v-135h-905v240q172 90 360 220q104 66 174 137t74 203q-2 160 -100 234t-274 76q-174 -6 -206 -28v144zM130 1375v-250q83 38 259 43q143 -6 228 -65t98 -196q-11 -107 -69 -173
t-157 -132q-187 -124 -388 -227v-315h1010v228h-727q330 176 411 233t151 126t117 151.5t48 196.5q-19 225 -179 317t-410 96q-113 0 -392 -33z" />
    <glyph glyph-name="three" unicode="3" horiz-adv-x="1212" 
d="M223 567v316q78 -4 115 -4q70 0 126 6t102 33t46 83q0 79 -61 112.5t-148 33.5t-179.5 -17t-166.5 -40v323q95 30 210 42.5t261 12.5q112 0 219 -22t199 -69.5t147.5 -126.5t55.5 -187q0 -246 -275 -326v-4q295 -77 295 -334q0 -148 -91.5 -243t-234.5 -138t-304 -43
q-123 0 -261.5 16.5t-234.5 43.5v336q70 -24 169.5 -42t190.5 -18q109 0 169.5 27.5t60.5 101.5q0 82 -70.5 112t-163.5 30q-63 0 -176 -15zM166 1329q33 14 129 27.5t234 9.5q85 1 184.5 -20.5t169.5 -54.5t112 -90t44 -139q-4 -196 -255 -307v-35q258 -128 274 -320
q-8 -114 -69.5 -172t-170 -96.5t-278.5 -50.5q-118 -2 -236.5 15t-156.5 25v127q175 -44 264 -34q132 -1 229.5 48.5t93.5 177.5q-5 127 -102.5 187.5t-232.5 59.5q-61 -3 -77 -4v96q31 -3 67 -2t104 9t145.5 58t83.5 157q9 112 -77 183t-245 71q-76 -3 -138.5 -12.5
t-95.5 -18.5v105zM118 1360v-192q38 14 122 27.5t161 11.5q127 1 200.5 -53.5t70.5 -152.5q-2 -85 -66 -126t-127.5 -47t-140.5 -10q-34 -2 -55 0v-183q54 9 116 7q121 0 203 -48.5t91 -153.5q-5 -104 -85 -144t-200 -47q-92 1 -192 24.5t-113 25.5v-214q49 -17 183.5 -34.5
t252.5 -15.5q166 3 290.5 44t196.5 116t83 204q-5 224 -295 327v18q270 100 275 318q-3 94 -52 162t-129 105t-174.5 58t-205.5 21q-142 4 -251 -11t-159 -37z" />
    <glyph glyph-name="four" unicode="4" horiz-adv-x="1442" 
d="M288 533h580v656zM1052 477h247v-97h-248v-270h-129v269h-772v147l703 806h199v-855zM1158 584h251v-308h-252v-276h-347v276h-777v308l777 860h347zM512 624h254v285zM409 580l409 476v-476h-409zM1100 520v864h-264l-744 -836v-212h780v-276h228v276h248v184h-248z" />
    <glyph glyph-name="five" unicode="5" horiz-adv-x="1212" 
d="M1104 1444v-336h-539v-223q55 6 160 6q120 0 222 -54t162 -155t60 -233q0 -176 -93 -281.5t-239 -149t-321 -43.5q-62 0 -141 7t-152.5 21t-146.5 34v330q183 -43 301 -43q256 0 256 163q0 100 -83.5 138.5t-199.5 38.5q-117 0 -256 -33v813h1010zM188 133v99
q68 -12 192 -11q348 3 359 267q-3 154 -98 216t-292 63q-102 -1 -145 -14v580h789v-121h-542v-445q167 26 274 20q94 2 165.5 -46t113.5 -115.5t50 -175.5q-6 -148 -68 -213.5t-190 -105t-280 -45.5q-58 -2 -132 3t-196 44zM136 92q21 -9 94.5 -26.5t150.5 -23.5t135 -8
q162 4 297 47t213 122t82 247q0 118 -52 202t-139 133t-192 52q-106 2 -219 -13v58v286h538v216h-890v-684q86 20 196 24q164 -4 250 -57t92 -179q-10 -214 -314 -224q-124 -4 -242 24v-196z" />
    <glyph glyph-name="six" unicode="6" horiz-adv-x="1401" 
d="M1126 1338v-102q-80 18 -131 20t-113 0q-178 -4 -322 -102t-118 -410h86q112 60 174 71t168 19q116 -2 190 -40t135 -117t57 -195q-6 -134 -71 -212t-186 -130t-261 -58q-158 4 -289 78t-211 207t-92 323q8 222 92 372t228 221t340 77q252 0 324 -22zM968 487
q0 115 -67.5 183.5t-184.5 68.5t-179 -70t-62 -198q0 -107 64 -178t177 -71q114 0 183 75.5t69 189.5zM1237 1430v-334q-25 6 -72.5 18t-83 18t-88 10.5t-112.5 4.5q-140 0 -236 -68t-96 -221q51 42 130.5 65t190.5 23q130 0 244.5 -54.5t184 -159.5t69.5 -249
q0 -169 -89.5 -283.5t-234 -169.5t-309.5 -55q-205 0 -366 91t-248.5 254t-87.5 370q0 248 98 424t272 265t397 89q255 0 437 -38zM877 485q0 81 -43 128t-117 47q-77 0 -116.5 -48.5t-39.5 -136.5q0 -75 41 -124t115 -49q72 0 116 52t44 131zM929 485q0 -98 -57.5 -162.5
t-152.5 -64.5q-96 0 -150 61t-54 153q0 109 52 170t152 61q98 0 154 -59.5t56 -158.5zM1177 1382q-125 31 -377 26q-208 -2 -364 -80t-247 -240.5t-96 -397.5q8 -198 88.5 -343t228 -224.5t325.5 -87.5q149 5 280 57.5t209 145.5t85 244q-5 130 -68 220.5t-154.5 138
t-215.5 43.5q-109 -3 -177 -21t-150 -63l-55 -2q-8 234 112.5 318.5t280.5 90.5q59 3 111.5 -0.5t87 -10.5t58.5 -13.5t38 -10.5v210z" />
    <glyph glyph-name="seven" unicode="7" horiz-adv-x="1212" 
d="M25 1444h1163v-397l-514 -1047h-615l609 1047h-643v397zM138 1330h942v-240l-466 -972h-352l600 1042h-724v170zM85 1384v-277l683 1l-606 -1048h485l481 1005v319h-1043z" />
    <glyph glyph-name="eight" unicode="8" horiz-adv-x="1401" 
d="M152 386q22 252 244 334v32q-104 70 -146 115t-58 74t-22 133q10 70 42 117t108 81t167 56t211 28q160 -8 274 -36t176 -84t82 -164q-10 -106 -45 -162t-189 -154v-30q164 -126 211 -175t53 -165q-6 -50 -42 -107t-110 -93t-164 -62t-246 -30q-154 4 -266 43t-188 89
t-92 160zM940 478q0 121 -61 195.5t-182 74.5q-123 0 -177.5 -75t-54.5 -201q0 -124 55 -203.5t177 -79.5q121 0 182 81.5t61 207.5zM496 1037q0 -103 53 -166.5t151 -66.5q92 0 145.5 65t53.5 163q0 94 -53.5 157.5t-145.5 63.5q-96 0 -150 -62t-54 -154zM25 385
q0 282 286 350v4q-89 30 -146.5 71.5t-86.5 106.5t-29 156q0 112 55.5 188.5t150 122t207.5 65t236 19.5q172 0 316.5 -36.5t235.5 -125t91 -233.5q0 -133 -65.5 -211t-192.5 -125v2v-4q132 -33 212.5 -120.5t80.5 -229.5q0 -114 -59.5 -194t-156.5 -127t-218 -68t-244 -21
q-116 -1 -294.5 38.5t-278.5 130.5t-100 241zM848 477q0 76 -37 123t-113 47t-110.5 -47.5t-34.5 -126.5q0 -77 35 -126.5t110 -49.5q76 0 113 50t37 130zM577 1040q0 -63 31.5 -102t88.5 -40q54 0 85.5 39.5t31.5 98.5q0 58 -31.5 97t-85.5 39q-56 0 -88 -38.5t-32 -93.5z
M888 475q0 -101 -48 -165.5t-145 -64.5t-141.5 63t-44.5 162q0 101 44 161.5t142 60.5q97 0 145 -60t48 -157zM544 1040q0 73 41.5 122.5t114.5 49.5q71 0 111.5 -50.5t40.5 -125.5q0 -77 -40.5 -128.5t-111.5 -51.5q-74 1 -115 52t-41 132zM84 386q12 -130 102 -196
t235 -109t277 -45q138 0 242 28t190 66t137 101t49 155q-4 124 -69 193t-205 153v16q134 74 180 139t58 185q-12 128 -88 196t-202 101t-292 39q-122 -4 -222 -26t-185 -62t-128 -98t-53 -148q2 -100 28 -143t74 -87t144 -98v-16q-248 -78 -272 -344z" />
    <glyph glyph-name="nine" unicode="9" horiz-adv-x="1401" 
d="M275 105v102q80 -18 131 -20t113 0q178 4 322 102t118 410l-67 1q-116 -52 -185.5 -67.5t-175.5 -23.5q-116 2 -190 40t-135 117t-57 195q6 134 71 212t186 130t261 58q158 -4 289 -78t211 -207t92 -323q-8 -222 -92 -372t-228 -221t-340 -77q-252 0 -324 22zM433 956
q0 -115 67.5 -183.5t184.5 -68.5t179 70t62 198q0 107 -64 178t-177 71q-114 0 -183 -75.5t-69 -189.5zM164 13v334q25 -6 72.5 -18t83 -18t88 -10.5t112.5 -4.5q140 0 236 68t96 221q-51 -42 -130.5 -65t-190.5 -23q-130 0 -244.5 54.5t-184 159.5t-69.5 249
q0 169 89.5 283.5t234 169.5t309.5 55q205 0 366 -91t248.5 -254t87.5 -370q0 -248 -98 -424t-272 -265t-397 -89q-255 0 -437 38zM524 958q0 -81 43 -128t117 -47q77 0 116.5 48.5t39.5 136.5q0 75 -41 124t-115 49q-72 0 -116 -52t-44 -131zM472 958q0 98 57.5 162.5
t152.5 64.5q96 0 150 -61t54 -153q0 -109 -52 -170t-152 -61q-98 0 -154 59.5t-56 158.5zM224 61q125 -31 377 -26q208 2 364 80t247 240.5t96 397.5q-8 198 -88.5 343t-228 224.5t-325.5 87.5q-149 -5 -280 -57.5t-209 -145.5t-85 -244q5 -130 68 -220.5t154.5 -138
t215.5 -43.5q109 3 177 21t149 68l56 -3q8 -234 -112.5 -318.5t-280.5 -90.5q-59 -3 -111.5 0.5t-87 10.5t-58.5 13.5t-38 10.5v-210z" />
    <glyph glyph-name="zero" unicode="0" horiz-adv-x="1516" 
d="M178 721q0 134 37.5 249t111 200t183 131t252.5 46q133 0 241 -44.5t183.5 -127t116 -198.5t40.5 -256q0 -190 -67 -331t-199 -219.5t-315 -78.5q-185 0 -317 79t-199.5 221.5t-67.5 328.5zM507 719q0 -127 5 -207t28 -146t77.5 -107.5t146.5 -41.5q114 0 170 68
t68.5 167t12.5 267q0 179 -12.5 278t-68 163t-170.5 64q-121 0 -178 -64.5t-68 -163t-11 -277.5zM47 721q0 162 46.5 298.5t137 238t223.5 156t306 54.5q163 0 294.5 -52t224 -151.5t141 -237t48.5 -306.5q0 -225 -81 -393.5t-241.5 -260.5t-385.5 -92q-224 0 -385.5 93.5
t-244.5 263.5t-83 389zM623 724q0 -97 2.5 -160t15 -114.5t42 -84t77.5 -32.5q65 0 95 53t35.5 130.5t5.5 209.5q0 138 -5.5 216.5t-35 127.5t-95.5 49q-64 0 -94.5 -49.5t-36.5 -127.5t-6 -218zM115 725q0 -202 75 -358t222 -242t351 -86t350.5 85t220 239.5t73.5 361.5
q0 154 -44 280t-128 217t-204 139.5t-268 48.5q-158 0 -279 -50.5t-203 -143.5t-124 -218t-42 -273zM556 721q0 161 9 249.5t54 147t141 58.5q92 0 136 -58t53.5 -147t9.5 -250q0 -152 -9.5 -241t-54 -150t-135.5 -61q-73 0 -116 37t-61.5 96.5t-22.5 131.5t-4 187z" />
    <glyph glyph-name="hyphen" unicode="-" horiz-adv-x="758" 
d="M198 483v148h367v-148h-367zM92 377v360h574v-360h-574zM152 437h454v240h-454v-240z" />
    <glyph glyph-name="equal" unicode="=" horiz-adv-x="1456" 
d="M0 430h1516v-60h-1516v60zM1516 0h-1516v60h1516v-60zM0 310h1516v-190h-1516v190z" />
    <glyph glyph-name="q" unicode="q" horiz-adv-x="1639" 
d="M1639 430v-430l-859 -25q-185 5 -326.5 53t-241.5 143.5t-151 233.5t-51 316q0 182 53 312.5t155 226.5t246 144t368 54q228 -6 402 -70t284 -212t98 -440q-24 -132 -96 -231t77 -75h42zM1488 731q-32 -103 -60 -149t-56 -142t144 -132v-180l-678 -33q-216 0 -371.5 71
t-234.5 208.5t-83 337.5q4 150 49.5 264.5t133.5 192.5t216.5 118.5t289.5 40.5q216 0 372.5 -71.5t225 -204.5t52.5 -321zM439 704q0 -177 77 -306t306 -129v91q344 -35 370 92t36 252q-10 170 -85.5 299t-320.5 129q-383 0 -383 -428zM551 702q0 -123 55 -216t218 -93v64
q244 -24 263 66.5t24 178.5q-5 124 -59 216t-228 92q-273 0 -273 -308zM1552 736q22 208 -54.5 355t-250 226t-412.5 79q-180 0 -322 -45t-240 -131t-148.5 -212.5t-54.5 -292.5q4 -220 92.5 -372t260.5 -230t412 -78l744 25v310q-177 10 -149 83t62 119t60 164zM499 703
q0 363 330 363q210 0 275 -109.5t72 -253.5q-7 -105 -29.5 -212.5t-317.5 -77.5v-76q-197 0 -263.5 109t-66.5 257z" />
    <glyph glyph-name="w" unicode="w" horiz-adv-x="2003" 
d="M1062 612l-152 -612h-470l-440 1444h470l198 -624l172 624h432l201 -624l134 624h470l-362 -1444h-470zM158 1327h227l205 -619h158l195 619h252l213 -618h133l158 619h230l-296 -1217h-297l-192 613h-158l-168 -605l-278 1zM76 1384l414 -1324h374l158 611h82l187 -611
h380l333 1324h-349l-148 -624h-67l-209 624h-340l-180 -624h-86l-198 624h-351z" />
    <glyph glyph-name="e" unicode="e" horiz-adv-x="1360" 
d="M60 0v1444h1238v-430h-768v-166h496v-252h-496v-166h830v-430h-1300zM180 1324h1000v-188h-760v-388h484v-54h-486l-2 -386h824v-192h-1060v1208zM120 1384v-1324h1180v310h-830v284h496v134h-496v286h768v310h-1118z" />
    <glyph glyph-name="r" unicode="r" horiz-adv-x="1550" 
d="M60 0v1444h940q174 -16 279 -86t143 -135t54 -159t-21 -205t-127 -181t-258 -110l108 -138h372v-430h-510l-458 477v-477h-522zM120 60h402v477h97l456 -477h415v310h-347l-135 190v28q214 70 288 132t104 154.5t18.5 175.5t-43 137.5t-126.5 118.5t-249 78h-880v-1324z
M557 1109h404q27 0 66 -31.5t46 -130.5q-4 -103 -41.5 -129t-69.5 -26h-405v317zM619 1051v-204h309q24 0 53.5 16.5t31.5 84.5q-5 62 -35.5 82.5t-50.5 20.5h-308zM184 128v1198h816q138 -14 220 -70t109 -102t35 -117t-16 -146t-83 -127t-317 -172v-28l164 -258h318v-184
h-318l-446 478h-202v-472h-280zM504 1165v-437h496q39 0 85 36.5t52 177.5q-9 137 -57 180t-81 43h-495z" />
    <glyph glyph-name="t" unicode="t" horiz-adv-x="1266" 
d="M1266 1444v-430h-398v-1014h-470v1014h-398v430h1266zM60 1384v-310h398v-1014h350v1014h398v310h-1146zM536 1136h-404v188h1008v-188h-388l2 -1003h-218v1003z" />
    <glyph glyph-name="y" unicode="y" horiz-adv-x="1614" 
d="M1732 1444l-630 -914v-530h-472v530l-630 914h570l294 -446l298 446h570zM116 1384l576 -836v-488h352v488l578 836h-420l-303 -446h-65l-296 446h-422zM226 1330h276l304 -442h120l302 444h286l-528 -760v-448h-226v444z" />
    <glyph glyph-name="u" unicode="u" horiz-adv-x="1494" 
d="M530 1444v-854q-6 -146 56 -203t194 -61q106 2 177 62t67 202v854h470v-847q-3 -180 -59.5 -287.5t-143 -179.5t-217 -112t-290.5 -44q-133 3 -270.5 36.5t-240 105.5t-158 185t-55.5 295v848h470zM177 1327h240v-735q-9 -178 73 -277t288 -101q196 12 279 109t81 269
v732h246v-726q-11 -162 -51.5 -237.5t-105 -130.5t-183 -95.5t-258.5 -46.5q-118 4 -238.5 35t-201.5 95t-123.5 132t-45.5 246v731zM120 1384v-788q2 -182 51 -269t140 -155t219 -101t254 -37q150 6 274 45t199 104t124 154t53 260v787h-350v-794q6 -152 -71 -232t-235 -92
q-172 6 -242 84t-66 240v794h-350z" />
    <glyph glyph-name="i" unicode="i" horiz-adv-x="530" 
d="M60 1444h470v-1444h-470v1444zM181 1318l227 2v-1200l-227 -3v1201zM120 1384v-1324h350v1324h-350z" />
    <glyph glyph-name="o" unicode="o" horiz-adv-x="1677" 
d="M1547 714q-3 -197 -87 -335.5t-242.5 -209t-378.5 -70.5t-378 71t-239 208t-84 336q3 150 49.5 264.5t136 192t220 118t295.5 40.5q219 0 378 -71.5t243 -209.5t87 -334zM1668 714q0 -237 -99 -404t-286.5 -251t-447.5 -84t-446.5 84.5t-282.5 250t-96 404.5
q0 181 55 318.5t161 231.5t260 142.5t349 48.5q259 0 447 -85.5t287 -252t99 -403.5zM426 708q0 -175 81 -307t319 -132q186 0 278 69.5t114.5 158t32.5 211.5q-10 178 -89.5 309.5t-335.5 131.5q-400 0 -400 -441zM551 709q0 -127 56 -221.5t223 -94.5q128 0 192 50t80 113
t21 153q-5 127 -60.5 221t-232.5 94q-279 0 -279 -315zM1608 714q-4 218 -95.5 371t-265 232t-412.5 79q-180 0 -322 -45t-240 -131t-148.5 -212.5t-54.5 -292.5q4 -220 92.5 -372t260.5 -230t412 -78t413 77.5t264.5 231t95.5 370.5zM486 712q0 380 340 380
q216 0 283 -113.5t75 -266.5q-8 -107 -27 -183.5t-96.5 -136t-234.5 -59.5q-202 0 -271 113.5t-69 265.5z" />
    <glyph glyph-name="p" unicode="p" horiz-adv-x="1501" 
d="M60 0v1444h940q174 -22 281 -90t151 -166t52 -167t4 -136t-29 -136t-135 -157t-290 -115h-452v-477h-522zM504 1165v-437h496q39 0 85 36.5t52 177.5q-9 137 -57 180t-81 43h-495zM184 128v1189l816 3q132 -28 210 -78t108 -106t42 -136t-10 -158t-90 -140t-228 -102
h-568v-472h-280zM619 1051v-204h309q24 0 53.5 16.5t31.5 84.5q-5 62 -35.5 82.5t-50.5 20.5h-308zM120 60h402v477h512q170 35 260 110t120 175t13 189t-48 155t-122 132t-257 86h-880v-1324zM557 1109h404q27 0 66 -31.5t46 -130.5q-4 -103 -41.5 -129t-69.5 -26h-405v317
z" />
    <glyph glyph-name="bracketleft" unicode="[" 
d="M60 1384h-240v-310h240v-60h-300v430h300v-60zM60 1134h-180v190h180v-190z" />
    <glyph glyph-name="bracketright" unicode="]" 
d="M0 1444h300v-430h-300v60h240v310h-240v60zM181 1324h-181v-190h181v190z" />
    <glyph glyph-name="backslash" unicode="\" 
d="M1636 -82h300v-430h-300v60h240v310h-240v60zM1816 -202h-180v-190h180v190z" />
    <glyph glyph-name="a" unicode="a" horiz-adv-x="1615" 
d="M0 0l475 1444h717l483 -1444h-546l-91 260h-429l-91 -260h-518zM840 1181l-282 -671h549zM184 132l396 1188h524l400 -1188h-276l-108 256h-588l-96 -256h-252zM708 612h238l-110 322zM84 60h394l93 260h515l94 -260h413l-440 1324h-628zM838 1057l186 -489h-386z" />
    <glyph glyph-name="s" unicode="s" horiz-adv-x="1135" 
d="M1135 1444v-430h-291q-257 8 -76 -142q324 -284 318 -552t-318 -320h-768v430h304q283 -8 72 158q-348 320 -296 588t328 268h727zM128 314h176q470 26 184 352q-318 320 -278 490t200 166h604v-188h-170q-418 12 -258 -260q364 -304 383 -502t-199 -250h-642v192z
M60 370v-310h708q264 56 256 288t-352 524q-160 208 172 202h231v310h-667q-208 -4 -262 -222t286 -534q252 -248 -128 -258h-244z" />
    <glyph glyph-name="d" unicode="d" horiz-adv-x="1662" 
d="M60 0v1444h852q173 0 306.5 -43t223 -124t150 -214t60.5 -341q-11 -202 -66 -340t-146 -218t-222.5 -124t-329.5 -40h-828zM450 1135v-843h341q117 0 188.5 46.5t115.5 118.5t57 258q-4 168 -51 249t-120 126t-192 45h-339zM180 120v1200l721 -3q161 5 275.5 -37
t178.5 -103.5t95 -120.5t49.5 -110.5t26.5 -226.5q-7 -182 -59.5 -293.5t-115 -168.5t-157 -93.5t-315.5 -43.5h-699zM574 1006v-602h214q91 3 133.5 38.5t64 76t31.5 186.5q-7 122 -31 174t-67.5 89t-131.5 38h-213zM514 1074h278q97 0 157 -39t98.5 -109.5t42.5 -216.5
q-12 -161 -48 -223t-94.5 -102t-153.5 -40h-280v730zM120 60h768q240 6 343 47t171 104t126 186t64 325q-8 194 -29 251t-54 122t-103 133t-195 114t-299 42h-792v-1324z" />
    <glyph glyph-name="f" unicode="f" horiz-adv-x="1298" 
d="M60 0v1444h1238v-430h-768v-166h496v-252h-496v-596h-470zM120 1384v-1324h350v594h496v134h-496v286h768v310h-1118zM180 1324h1000v-192h-760v-384h484v-54h-486l-2 -574h-236v1204z" />
    <glyph glyph-name="g" unicode="g" horiz-adv-x="1484" 
d="M1424 1074v310h-580q-164 -2 -300 -39t-241 -119t-167 -202t-66 -281q-2 -227 102 -379t280 -226t392 -78h580v602h-332v-292h-60q-136 -2 -216 7t-158 30t-131 93t-62 218q11 168 68 225t122 83t144.5 35.5t232.5 12.5h392zM1484 1444v-430h-452q-152 0 -225 -9
t-130 -30t-101 -73t-51 -184q5 -128 51 -183t112 -73t136 -25t208 -7v292h452v-722h-640q-235 0 -425 83.5t-299.5 250.5t-109.5 409q0 170 65.5 303.5t181.5 222t266.5 132t320.5 43.5h640zM1364 1328v-192h-332q-150 -2 -239 -13t-167 -41t-144 -96t-78 -266
q12 -164 76 -248t155 -112t178 -38t223 -10h112v292h220v-484h-524q-196 0 -358 70t-260 206t-98 348q8 152 64 260t154 180t222 104t280 40h516z" />
    <glyph glyph-name="h" unicode="h" horiz-adv-x="1378" 
d="M908 946v498h470v-1444h-470v520h-378v-520h-470v1444h470v-498h378zM180 1324h232v-500h616v504h228v-1200h-228v504h-608v-508h-240v1200zM120 1384v-1324h350v520h498v-520h350v1324h-350v-498h-498v498h-350z" />
    <glyph glyph-name="j" unicode="j" horiz-adv-x="856" 
d="M856 1444v-430h-60v-560q-8 -158 -48 -224t-122 -125t-222 -91q-136 -10 -221 -11t-183 -3v430q78 -20 176 0q78 18 108 42t42 114v858h530zM436 1324h304l2 -196h-58v-676q0 -86 -22 -145t-72 -100t-182 -75q-140 -18 -280 -18v202q64 -4 112 14t116 68t82 186z
M386 1384v-798q-13 -114 -65 -152t-145 -60q-59 -16 -116 -10v-304q209 -2 344 14q140 34 206 84t96 110.5t30 185.5v620h60v310h-410z" />
    <glyph glyph-name="k" unicode="k" horiz-adv-x="1404" 
d="M530 1444v-470l330 470h470l-538 -722l240 -292h372v-430h-510l-364 430v-430h-470v1444h470zM180 1322h230v-461h185l322 467h182l-419 -588v-28l299 -397l305 1v-200l-325 -1l-383 429h-162v-425h-233zM120 1384v-1324h350v430h83l371 -430h420v310h-341l-271 338v24
l483 652h-324l-320 -470h-101v470h-350z" />
    <glyph glyph-name="l" unicode="l" horiz-adv-x="1312" 
d="M60 0v1444h470v-1014h782v-430h-1252zM120 1384v-1324h1132v310h-782v1014h-350zM180 1318h226v-1010h782v-192h-1008v1202z" />
    <glyph glyph-name="semicolon" unicode=";" horiz-adv-x="1440" 
d="M478 738q8 -120 52 -180t105 -95t185 -51q128 8 184 34t128 86l284 -316q-124 -116 -246 -160t-354 -56q-224 12 -339 65.5t-227.5 142t-176 222t-63.5 309.5q0 174 63.5 307.5t172 222.5t227.5 142t343 62q232 -9 354 -53t246 -160l-284 -316q-72 60 -128 86t-184 34
q-124 -16 -185 -51t-105 -95t-52 -180zM1246 1248l-128 -150q-86 74 -284 76q-182 -4 -267 -50t-155 -135t-80 -251q2 -154 81 -245t160 -130t249 -65q220 4 300 64l132 -140q-40 -36 -133 -68t-305 -44q-166 4 -278 59t-199 130t-148 171t-67 268q8 156 70 269t144 183
t184 116t296 54q210 -12 306 -44t122 -68zM1324 1252q-68 76 -178 112t-330 49q-210 -5 -319 -57t-204 -132t-157 -200t-66 -285q2 -179 66 -285t162 -190t214 -142t304 -62q223 11 327 47.5t189 116.5l-205 214q-121 -88 -307 -86q-148 20 -220 58t-135 113t-73 215
q12 144 72 217t134.5 116t231.5 51q170 2 296 -94z" />
    <glyph glyph-name="quotesingle" unicode="'" horiz-adv-x="647" 
d="M170 813v631h307v-631h-307zM287 921v410h86v-410h-86zM233 875h187v511h-187v-511z" />
    <glyph glyph-name="z" unicode="z" horiz-adv-x="1380" 
d="M60 1444h1320v-430l-699 -584h699v-430h-1320v430l699 584h-699v430zM184 1320h1078v-262l-696 -566v-174h686v-198h-1076v262l690 584v164h-682v190zM120 1384v-310h695l-1 -84l-694 -587v-343h1200v310h-699v85l699 578v351h-1200z" />
    <glyph glyph-name="x" unicode="x" horiz-adv-x="1616" 
d="M1732 1444l-530 -722l530 -722h-570l-298 446l-294 -446h-570l530 722l-530 722h570l294 -446l298 446h570zM226 1330h276l304 -442h120l302 444h286l-424 -540v-128l428 -550h-276l-298 442h-146l-284 -438h-272l402 550v120zM114 1384l476 -622v-70l-470 -632h422
l286 446h80l288 -446h422l-476 629v68l478 627h-420l-303 -446h-65l-296 446h-422z" />
    <glyph glyph-name="c" unicode="c" horiz-adv-x="1484" 
d="M1484 430v-430h-640q-235 0 -425 83.5t-299.5 250.5t-109.5 409q0 170 65.5 303.5t181.5 222t266.5 132t320.5 43.5h640v-430h-452q-152 0 -225 -9t-130 -30t-101 -73t-51 -184q5 -128 51 -183t112 -73t136 -25t208 -7h452zM1440 1384h-594q-166 -4 -303 -41t-242 -115
t-168 -198.5t-67 -283.5q-2 -229 103.5 -382.5t284 -228t397.5 -78.5h589v313h-398q-138 -2 -219.5 7t-160.5 30t-133 94t-63 220q12 169 69.5 227t123.5 84t146.5 35.5t226.5 10.5h408v306zM1378 1328v-192h-346q-150 -2 -239 -13t-167 -41t-144 -96t-78 -266
q12 -164 76 -248t155 -112t178 -38t223 -10h336v-192h-528q-196 0 -358 70t-260 206t-98 348q8 152 64 260t154 180t222 104t280 40h530z" />
    <glyph glyph-name="v" unicode="v" horiz-adv-x="1722" 
d="M551 1444l328 -1109l332 1109h579l-515 -1444h-767l-508 1444h551zM184 1323h277l338 -1107h170l334 1109h337l-437 -1206h-617zM546 60h693l475 1324h-460l-329 -1109h-87l-334 1109h-417z" />
    <glyph glyph-name="b" unicode="b" horiz-adv-x="1628" 
d="M60 0v1444h985q237 -2 360.5 -82t149.5 -268q9 -144 -61 -226t-231 -135v-4q79 -10 146 -42.5t112.5 -77t70.5 -100.5t25 -110q0 -171 -87.5 -259t-225 -115t-333.5 -25h-911zM490 1153v-343h382q103 -3 175.5 46t72.5 123q5 85 -67 128.5t-181 45.5h-382zM580 1048v-120
h264q132 -8 146 56q-26 64 -146 64h-264zM184 124v1192h822q190 -2 296 -51t118 -177q8 -124 -42 -178t-214 -178q128 -96 226 -168t102 -164q-4 -120 -54 -178t-186 -78t-304 -20h-764zM486 622v-388h423q118 -6 192.5 42.5t81.5 149.5q-7 99 -78 148.5t-196 47.5h-423z
M580 512v-164h320q140 -8 152 80q-8 84 -148 84h-324zM120 60h851q193 -4 323.5 22t198.5 104.5t64 212.5q0 53 -23 98t-59 80t-93 63.5t-174 91.5q156 78 226.5 151t60.5 211q-22 158 -129 222.5t-321 67.5h-925v-1324zM534 1100h311q88 0 146 -29.5t55 -86.5
q6 -67 -50 -97.5t-151 -18.5h-311v232zM538 570h345q101 3 163 -33t62 -108q0 -80 -50 -112t-175 -30h-345v283z" />
    <glyph glyph-name="n" unicode="n" horiz-adv-x="1430" 
d="M60 0v1444h470l430 -540v540h470v-1444h-470l-430 540v-540h-470zM180 1320h294l418 -534h194v532h225v-1200h-282l-431 539h-176l-2 -537h-240v1200zM120 1384v-1324h350v540h95l430 -540h375v1324h-350v-538h-95l-420 538h-385z" />
    <glyph glyph-name="m" unicode="m" horiz-adv-x="1630" 
d="M60 0v1444h470l316 -600l314 600h470v-1444h-470v600l-302 -600h-26l-302 600v-600h-470zM184 1320h278l378 -628h16l380 628h272v-1188h-228v592h-188l-248 -516l-252 520h-180v-600h-228v1192zM120 1384v-1324h350v606h92l280 -582l285 576h93v-600h350v1324h-375
l-344 -624h-8l-348 624h-375z" />
    <glyph glyph-name="comma" unicode="," horiz-adv-x="758" 
d="M188 397h435l-236 -630h-326zM256 312h234l-164 -464h-158zM226 354l-104 -544h226l204 544h-326z" />
    <glyph glyph-name="period" unicode="." horiz-adv-x="758" 
d="M272 106v189h221v-189h-221zM156 0v397h446v-397h-446zM216 60h326v277h-326v-277z" />
    <glyph glyph-name="slash" unicode="/" horiz-adv-x="758" 
d="M518 1468h363l-641 -1493h-363zM45 80l547 1274h122l-549 -1274h-120zM-24 32h220l592 1376h-224z" />
    <glyph glyph-name="space" unicode=" " horiz-adv-x="950" 
 />
    <glyph glyph-name="asciitilde" unicode="~" horiz-adv-x="1615" 
d="M1321 1014l333 -1014h-518l-91 260h-429l-91 -260h-546l483 1444h1212v-430h-353zM1232 1074h382v310h-1113l-440 -1324h413l94 260h515l93 -260h394zM818 934l-110 -322h238zM1219 128l-92 256h-600l-100 -256h-284l412 1192h996v-184h-408l340 -1008h-264zM1017 568
h-386l186 489zM548 510h549l-282 671z" />
    <glyph glyph-name="exclam" unicode="!" horiz-adv-x="872" 
d="M162 1444h549l-80 -909h-389zM213 385h446v-385h-446v385zM325 270h216v-150h-216v150zM292 1324h279l-49 -677h-182zM228 1384l73 -789h271l71 789h-415zM273 325v-265h326v265h-326z" />
    <glyph glyph-name="at" unicode="@" horiz-adv-x="5657" 
d="M598 1514v-966l17 108l34 20v857zM109 238v-90h627l35 382v119l-131 5q-8 -416 -217 -376v1408q11 54 69 45l1 94h-384v-92q85 -14 69 -164v-1294zM1050 1514v-893l53 19v893zM598 1825v-92q68 -18 68 -73v-984l119 -1l21 -19v-253l35 -18q314 -55 419 255v999
q-9 104 69 94v92h-279v-92q72 10 70 -127v-966q-68 -89 -147.5 -68.5t-95.5 158.5l-2 938q14 76 87 66l1 91h-365zM1399 585v-55l122 36l-70 90h-34zM1365 1699v-909q86 -114 190 -150q193 -19 332 201v346h-157v-328q-122 -72 -156 18l-1 767q81 129 157 16v-219h157v384
l-174 -19q-27 50 -167 34.5t-181 -141.5zM1730 1423v-218h157l52 -73l36 18v110h-85l-142 163h-18zM2178 1573l40 -313h-86zM1260 330v-37h925q33 -41 53 18q-15 55 -53 20zM1034 220q-51 -69 16 -109h53l-1 35l-50 2l-2 35h1012q91 -93 204.5 -56t127.5 187
q-3 144 -126 188t-208 -63h-312v35h36l-1 -18h35q-6 68 -60 58.5t-50.5 -61.5t40.5 -50h332q99 108 190.5 56t89.5 -141q-10 -124 -114 -158.5t-166 60.5h-1046zM1887 841v-110l244 61l1 104h-52l34 218h140l19 -158q-2 -50 -55 -48v-104l315 37v127q-70 0 -70 110l-86 613
q1 51 86 59v75h-471v-92q56 7 70 -54l-105 -747q-12 -83 -70 -91zM2586 1315l34 -92h35l-35 92h-34zM2445 183v-54h262q-1 89 19 196l-54 5q-22 -124 -61 -145l-25 17v383l33 21l1 50h-175v-49l35 -24l1 -400h-36zM2671 511l1 -72h70q-18 -291 35 -310q108 -14 156 19v54
q-68 -37 -86 0v237h70v72h-70v92l-105 -18v-74h-71zM2550 1205v-364h122v36q251 -114 366 110v273l-38 69l-240 185v146q49 57 99 24t40 -170h139v311h-139v-20l-16 2q-10 51 -201 35q-88 -30 -132 -134v-285q96 -129 279 -218v-163q-92 -102 -157 21v142h-122zM3056 436
q34 32 69 3l-1 -219q-24 -32 -68 -18v234zM2899 1478l18 -74l191 -181h17v110q-87 -18 -192 145h-34zM2951 456v-291l52 -36h297q0 19 -70 73v454h-156q-18 -16 51 -71v-91q-122 54 -174 -38zM3074 950v-109l348 -19v91q-71 10 -69 89v276q86 -3 95 -73h114v273h-123
q13 -77 -86 -72v290q163 16 139 -163h139v292h-557v-92q69 -18 69 -73v-644q-24 -67 -69 -66zM3492 1114v-201l121 -112v97q46 -9 70 50l1 75q-122 -36 -175 91h-17zM3631 875v-107q199 -19 366 -84v120q-73 6 -69 77v802q4 61 51 69l1 73h-331v-92q38 1 51 -62v-728
q-14 -78 -69 -68zM3450 311q21 -60 60 -18h941v37h-941q-41 42 -60 -19zM4468 1533v-510h88v510h-88zM4553 801l20 1v-181h-35zM3297 316q19 -167 149.5 -197.5t186.5 65.5l1027 -1l-19 -35l-20 17h-31l36 -54q76 -1 67 89l-15 20h-1064q-37 -74 -140 -72q-133 40 -140 166
q19 142 151 162q85 2 132 -73l381 -2q43 72 6 99.5t-76 -6.5v-38h35l1 20h15l1 -37h-349q-59 92 -183 68t-151 -191zM806 220v-37h52q995 604 2288 536q637 -67 1062 -232t701 -339h47l1 54q-382 219 -763 365t-1033 220q-506 54 -1290 -111l-350 -110l-435 -181zM4887 456
q-22 -67 70 -126v-128l60 -52l9 106l70 19v73q-127 9 -174 108h-35zM4017 785v-110q406 -97 715 -292h52v109q-70 0 -70 92v766l175 -821l53 -37l173 858l-2 -1057q-19 -63 -68 -58l1 -89h384v91q-77 -2 -70 128l-1 1317q-2 48 71 54v87h-367l-121 -619l-129 615l-63 4h-245
v-91q61 1 70 -55v-674l-98 1q-19 -234 -99 -274h-65v930q1 66 70 74v89h-366v-91q73 12 70 -92v-837zM92 1842h418l69 -74v74h402v-44l52 -11v55h314l40 -53l108 71q201 14 231 -27l179 9l70 -74v74h501l69 -74l77 71l50 21q136 12 194 -15l1531 -2l86 -93l2 92h350
l169 -206l42 207l399 -1l158 -165v-127q-106 -19 -88 -110v-1258l88 -91v-128h-420q-45 19 -53 74h-32l-24 -38h-222q-17 -55 -105 -36q13 49 -157 36h-837q0 -55 -156 -50l-90 51l-32 2v-53q-349 -25 -384 50q-17 -55 -105 -55l-103 55l-24 -53h-288l-39 54l-34 -1
q-87 -55 -175 -55l-174 55h-872l-69 -55l-175 147q-120 -39 -139 -128h-646l-156 165v128q78 7 69 109l-1 1228q3 89 -68 115v134z" />
    <glyph glyph-name="numbersign" unicode="#" 
d="M-60 1074h180v-60h-180v60zM-60 1324h180v-190h-180v190zM-60 1444h180v-60h-180v60z" />
    <glyph glyph-name="dollar" unicode="$" 
d="M-60 60h180v-60h-180v60zM-60 430h180v-60h-180v60zM-60 310h180v-190h-180v190z" />
    <glyph glyph-name="percent" unicode="%" 
d="M60 1384h60v-310h-60v310z" />
    <glyph glyph-name="asciicircum" unicode="^" 
d="M60 370h60v-310h-60v310z" />
    <glyph glyph-name="ampersand" unicode="&#x26;" 
d="M-60 1384h60v-310h-60v310z" />
    <glyph glyph-name="asterisk" unicode="*" 
d="M-60 370h60v-310h-60v310z" />
    <glyph glyph-name="parenleft" unicode="(" horiz-adv-x="758" 
d="M528 20h-120q-68 96 -112 224t-74 270t-34 310q0 396 224 800h128q-68 -148 -96 -242t-42 -178t-26 -184t-16 -196q-4 -136 4 -232t26 -174t44 -168t94 -230zM717 -105h-375q-85 142 -147.5 295.5t-96.5 311.5t-34 319q0 454 278 928h375q-58 -107 -101 -218
t-72.5 -230.5t-43.5 -239.5t-14 -240q0 -119 14.5 -240t43 -239t71.5 -228.5t102 -218.5zM616 -44q-68 132 -98 232t-52 196t-32 208t-14 232q8 108 18 218t32 212t54 202t88 232h-232q-252 -444 -249 -864q-3 -168 33 -316t84 -278t132 -274h236z" />
    <glyph glyph-name="parenright" unicode=")" horiz-adv-x="758" 
d="M253 20q68 140 94 230t44 168t26 174t4 232q-4 96 -16 196t-26 184t-42 178t-96 242h128q224 -404 224 -800q-4 -168 -34 -310t-74 -270t-112 -224h-120zM64 -105q59 108 102 218.5t71.5 228.5t43 239t14.5 240q0 120 -14 240t-43.5 239.5t-72.5 230.5t-101 218h375
q278 -474 278 -928q0 -161 -34 -319t-96.5 -311.5t-147.5 -295.5h-375zM401 -44q84 144 132 274t84 278t33 316q3 420 -249 864h-232q56 -132 88 -232t54 -202t32 -212t18 -218q-4 -120 -14 -232t-32 -208t-52 -196t-98 -232h236z" />
    <glyph glyph-name="underscore" unicode="_" horiz-adv-x="1440" 
d="M1001 430v292h439v-722h-621q-228 0 -412.5 83.5t-290.5 250.5t-106 409q0 170 63.5 303.5t176 222t227.5 142t339 65.5q232 -12 354 -56t246 -160l-284 -316q-72 60 -128 86t-184 34q-124 -16 -182 -54t-102 -98t-56 -184q12 -124 56 -174t110 -82t142 -40t213 -2z
M1324 1252q-68 76 -178 112t-330 49q-210 -5 -319 -57t-204 -132t-157 -200t-66 -285q22 -203 72 -301t118 -168t218 -138t338 -72h564v602h-318v-292q-58 -22 -242 -18q-148 20 -220 58t-132 114t-60 214q0 142 58 216t132.5 117t231.5 51q170 6 296 -94zM1246 1248
l-128 -150q-86 74 -284 76q-182 -4 -267 -50t-155 -135t-80 -251q2 -154 81 -245t160 -130t249 -65q214 -6 294 28v272h206v-482h-506q-164 6 -277 57t-200 126t-148 171t-67 268q8 156 70 269t144 183t184 116t296 54q210 -12 306 -44t122 -68z" />
    <glyph glyph-name="plus" unicode="+" horiz-adv-x="1456" 
d="M0 1444h1516v-60h-1516v60zM1516 1014h-1516v60h1516v-60zM0 1324h1516v-190h-1516v190z" />
    <glyph glyph-name="Q" unicode="Q" horiz-adv-x="1639" 
d="M1556 736q18 208 -58.5 355t-250 226t-412.5 79q-180 0 -322 -45t-240 -131t-148.5 -212.5t-54.5 -292.5q4 -220 92.5 -372t260.5 -230t412 -78l744 25h60v-60l-859 -25q-185 5 -326.5 53t-241.5 143.5t-151 233.5t-51 316q0 182 53 312.5t155 226.5t246 144t368 54
q228 -6 402 -70t284 -212t98 -440q-24 -132 -96 -231t77 -75h42v-60h-60q-177 10 -149 83t62 119t64 164zM499 703q0 363 330 363q210 0 275 -109.5t72 -253.5q-7 -105 -29.5 -212.5t-317.5 -77.5v-76q-197 0 -263.5 109t-66.5 257zM551 702q0 -123 55 -216t218 -93v64
q244 -24 263 66.5t24 178.5q-5 124 -59 216t-228 92q-273 0 -273 -308zM1488 731q-32 -103 -60 -149t-56 -142t146 -130h120v-190l-800 -25q-216 0 -371.5 71t-234.5 208.5t-83 337.5q4 150 49.5 264.5t133.5 192.5t216.5 118.5t289.5 40.5q216 0 372.5 -71.5t225 -204.5
t52.5 -321zM439 704q0 -177 77 -306t306 -129v91q344 -35 370 92t36 252q-10 170 -85.5 299t-320.5 129q-383 0 -383 -428z" />
    <glyph glyph-name="W" unicode="W" horiz-adv-x="1932" 
d="M60 1384v60h358l198 -624l172 624h432l201 -624l134 624h377v-60h-329l-148 -624h-67l-209 624h-340l-180 -624h-86l-198 624h-315zM1872 1074h60v-60h-12l-257 -1014h-470l-183 612l-152 -612h-470l-316 1014h-12v60h60l318 -1014h374l158 611h82l187 -611h380zM60 1324
h270l204 -616h158l195 619h252l213 -618h133l156 615h291v-190h-106l-249 -1023h-297l-192 613h-158l-168 -605l-278 1l-318 1014h-106v190z" />
    <glyph glyph-name="E" unicode="E" horiz-adv-x="1360" 
d="M60 1384v60h1240v-60h-1240zM120 370h-60v704h60v-704zM1300 1074v-60h-770v-166h496v-252h-496v-166h830v-60h-890v284h496v134h-496v286h830zM1360 60v-60h-1300v60h1300zM60 1324h1240v-190h-880v-386h484v-54h-486v-382l942 -2v-190h-1300v190h122v824h-122v190z" />
    <glyph glyph-name="R" unicode="R" horiz-adv-x="1550" 
d="M60 1384v60h940q174 -16 279 -86t143 -135t54 -159t-21 -205t-127 -181t-258 -110l108 -138h372v-60h-407l-133 192v14q206 83 281.5 146t107 154t20 174t-43 137.5t-126.5 118.5t-249 78h-940zM557 1109h404q27 0 66 -31.5t46 -130.5q-4 -103 -41.5 -129t-69.5 -26h-405
v317zM619 1051v-204h309q24 0 53.5 16.5t31.5 84.5q-5 62 -35.5 82.5t-50.5 20.5h-308zM60 60h462v477h97l456 -477h475v-60h-510l-458 477v-477h-522v60zM120 1074v-704h-60v704h60zM504 1165v-437h496q39 0 85 36.5t52 177.5q-9 137 -57 180t-81 43h-495zM60 120v190h122
v824h-122v190h940q138 -12 220 -68t109 -102t35 -117t-16 -146t-83 -127t-313 -182v-26l176 -244l422 -2v-190h-444l-440 480h-202v-480h-404z" />
    <glyph glyph-name="T" unicode="T" horiz-adv-x="1266" 
d="M458 60h350v1014h458v-60h-398v-1014h-470v1014h-398v60h458v-1014zM0 1444h1266v-60h-1266v60zM535 1134h-535v190h1266v-190h-514v-1001h-217v1001z" />
    <glyph glyph-name="Y" unicode="Y" horiz-adv-x="1264" 
d="M60 1384v60h306l294 -446l298 446h306v-60h-266l-303 -446h-65l-296 446h-274zM1264 1074v-60h-26l-340 -484v-530h-472v530l-340 484h-26v60h60l368 -526v-488h352v488l364 526h60zM60 1324h242l304 -444h120l302 444h236v-190h-82l-396 -570v-448h-226v444l-401 574
h-99v190z" />
    <glyph glyph-name="U" unicode="U" horiz-adv-x="1494" 
d="M530 1444v-854q1 -145 59.5 -202.5t190.5 -61.5q106 2 177 62t67 202v854h470v-60h-410v-794q3 -152 -67.5 -231t-236.5 -93q-174 6 -241 84t-69 240v794h-410v60h470zM1434 1074h60v-477q-3 -180 -59.5 -287.5t-143 -179.5t-217 -112t-290.5 -44q-133 3 -270.5 36.5
t-240 105.5t-158 185t-55.5 295v478h60v-478q10 -178 55 -267t136 -157t219 -101t254 -37q150 6 274 45t199 104t124 154t53 260v477zM60 1324h357v-732q1 -176 78 -276t283 -102q196 12 279 109t81 269v732h356v-190h-113v-537q-8 -161 -48.5 -236.5t-105 -130.5
t-183 -95.5t-258.5 -46.5q-118 4 -238.5 35t-201.5 95t-118 131.5t-46 246.5v538h-122v190z" />
    <glyph glyph-name="I" unicode="I" horiz-adv-x="1404" 
d="M60 1384v60h470v-470l330 470h470l-538 -722l460 -718q62 -92 152 -86v-61q-120 -3 -176 95l-496 760v16l483 656h-324l-320 -470h-101v470h-410zM120 1074v-704h-60v704h60zM60 0v60h410v430h83l527 -770q110 -176 324 -172v-60q-250 -2 -352 180l-522 762v-430h-470z
M60 1324h350v-463h185l322 467h182l-419 -596v-28l516 -792q62 -108 208 -114v-190q-184 -12 -300 168l-528 768h-162v-424h-354v190h122v824h-122v190z" />
    <glyph glyph-name="O" unicode="O" horiz-adv-x="1550" 
d="M60 1384v60h940q174 -16 279 -86t143 -135t54 -159t-21 -205t-127 -181t-258 -110l372 -608q36 -44 108 -42v-60q-102 -4 -138 52l-402 646v24q206 79 281.5 142t107 154t20 174t-43 137.5t-126.5 118.5t-249 78h-940zM557 1109h404q27 0 66 -31.5t46 -130.5
q-4 -103 -41.5 -129t-69.5 -26h-405v317zM619 1051v-204h309q24 0 53.5 16.5t31.5 84.5q-5 62 -35.5 82.5t-50.5 20.5h-308zM60 60h462v477h97l585 -873q92 -120 346 -116v-60q-285 -2 -374 112l-594 877v-477h-522v60zM120 1074v-704h-60v704h60zM60 120v190h122v824h-122
v190h940q138 -12 220 -68t109 -102t35 -117t-16 -146t-83 -127t-313 -182v-26l432 -692q39 -67 166 -66v-190q-228 -8 -322 116l-562 876h-202v-480h-404zM504 1165v-437h496q39 0 85 36.5t52 177.5q-9 137 -57 180t-81 43h-495z" />
    <glyph glyph-name="P" unicode="P" horiz-adv-x="1501" 
d="M60 0v60h462v477h512q170 35 260 110t120 175t13 189t-48 155t-122 132t-257 86h-940v60h940q174 -22 281 -90t151 -166t52 -167t4 -136t-29 -136t-135 -157t-290 -115h-452v-477h-522zM557 1109h404q27 0 66 -31.5t46 -130.5q-4 -103 -41.5 -129t-69.5 -26h-405v317z
M619 1051v-204h309q24 0 53.5 16.5t31.5 84.5q-5 62 -35.5 82.5t-50.5 20.5h-308zM120 1074v-704h-60v704h60zM60 120v190h122v824h-122v190h940q132 -32 210 -82t108 -106t42 -136t-10 -158t-90 -140t-228 -102h-568v-480h-404zM504 1165v-437h496q39 0 85 36.5t52 177.5
q-9 137 -57 180t-81 43h-495z" />
    <glyph glyph-name="braceleft" unicode="{" 
d="M60 370h-240v-310h240v-60h-300v430h300v-60zM60 120h-180v190h180v-190z" />
    <glyph glyph-name="braceright" unicode="}" 
d="M0 430h300v-430h-300v60h240v310h-240v60zM180 310h-180v-190h180v190z" />
    <glyph glyph-name="bar" unicode="|" 
d="M-1636 -142h-240v-310h240v-60h-300v430h300v-60zM-1636 -392h-180v190h180v-190z" />
    <glyph glyph-name="A" unicode="A" horiz-adv-x="1492" 
d="M60 60h370l92 260h508l92 -260h370v-60h-410l-92 260h-428l-92 -260h-410v60zM1480 430h12v-60h-60l-326 1014h-630l-354 -1014h-62v60h12l354 1014h730zM660 612h238l-110 322zM60 120v190h128l332 1006h524l339 -1006h109v-190h-321l-111 264h-588l-90 -264h-322z
M786 1057l186 -489h-386zM792 1181l-282 -671h549z" />
    <glyph glyph-name="S" unicode="S" horiz-adv-x="1135" 
d="M1135 1444v-60h-727q-208 -4 -262 -222t286 -534q252 -248 -128 -258h-244v60h244q283 -8 72 158q-348 320 -296 588t328 268h727zM1135 1014h-291q-257 8 -76 -142q324 -284 318 -552t-318 -320h-708v60h708q264 56 256 288t-352 524q-160 208 172 202h291v-60zM60 310
h245q469 30 183 356q-318 320 -278 490t198 168h727v-190h-291q-418 12 -258 -260q364 -304 383 -502t-198 -252h-711v190z" />
    <glyph glyph-name="D" unicode="D" horiz-adv-x="1662" 
d="M60 60h828q240 6 343 47t171 104t126 186t64 325q-8 194 -29 251t-54 122t-103 133t-195 114t-299 42h-852v60h852q173 0 306.5 -43t223 -124t150 -214t60.5 -341q-11 -202 -66 -340t-146 -218t-222.5 -124t-329.5 -40h-828v60zM60 370v704h60v-704h-60zM60 120v190h122
v824h-122v190h852q161 0 279 -38t181 -99t92.5 -119.5t46 -114t27.5 -232.5q-4 -200 -61 -311t-105.5 -159.5t-134.5 -86.5t-349 -44h-828zM450 1135v-843h341q117 0 188.5 46.5t115.5 118.5t57 258q-4 168 -51 249t-120 126t-192 45h-339zM514 1074h278q97 0 157 -39
t98.5 -109.5t42.5 -216.5q-12 -161 -48 -223t-94.5 -102t-153.5 -40h-280v730zM574 1006v-602h214q91 3 133.5 38.5t64 76t31.5 186.5q-7 122 -31 174t-67.5 89t-131.5 38h-213z" />
    <glyph glyph-name="F" unicode="F" horiz-adv-x="1300" 
d="M60 1384v60h1240v-60h-1240zM120 370h-60v704h60v-704zM470 60v594h496v134h-496v286h830v-60h-770v-166h496v-252h-496v-596h-470v60h410zM60 1324h1240v-190h-880v-386h484v-54h-484v-574h-360v190h122v824h-122v190z" />
    <glyph glyph-name="G" unicode="G" horiz-adv-x="1484" 
d="M1484 1074v-60h-452q-152 0 -225 -9t-130 -30t-101 -73t-51 -184q5 -128 51 -183t112 -73t136 -25t208 -7v292h452v-722h-640q-235 0 -425 83.5t-299.5 250.5t-109.5 409q0 170 65.5 303.5t181.5 222t266.5 132t320.5 43.5h640v-60h-640q-164 -2 -300 -39t-241 -119
t-167 -202t-66 -281q-2 -227 102 -379t280 -226t392 -78h580v602h-332v-292h-60q-136 -2 -216 7t-158 30t-131 93t-62 218q11 168 68 225t122 83t144.5 35.5t232.5 12.5h452zM1484 1324v-190h-451q-151 0 -240 -11t-167 -41t-144 -96t-78 -266q12 -164 76 -248t155 -112
t178 -38t223 -10h112v292h224v-484h-528q-196 0 -358 70t-260 206t-98 348q8 152 64 260t154 180t222 104t277 36h639z" />
    <glyph glyph-name="H" unicode="H" horiz-adv-x="1378" 
d="M908 946v498h470v-60h-410v-498h-498v498h-410v60h470v-498h378zM60 370v704h60v-704h-60zM1378 1074v-704h-60v704h60zM1378 60v-60h-470v520h-378v-520h-470v60h410v520h498v-520h410zM60 1324h354v-500h614l1 500h349v-190h-118v-824h118v-190h-350v512h-614v-512
h-354v190h122v824h-122v190z" />
    <glyph glyph-name="J" unicode="J" horiz-adv-x="877" 
d="M386 1384v-1260q-7 -114 -36.5 -156t-80.5 -69t-104 -35t-165 -6v60q88 -2 141 6t90 26t60 51t35 123v1320h551v-60h-491zM0 -512v60q150 0 242 8t203 40t174 85t86 109t31 202v1082h141v-60h-81v-1022q-6 -166 -36 -234t-107 -128t-193 -91t-210 -41t-250 -10zM440 1324
h437v-190h-195v-1141q-10 -128 -27.5 -173t-67 -89.5t-156.5 -76.5t-197 -39t-234 -7v190q138 -2 190.5 9t115.5 43t93.5 86t40.5 188v1200z" />
    <glyph glyph-name="K" unicode="K" horiz-adv-x="1404" 
d="M60 1384v60h470v-470l330 470h470l-538 -722l240 -292h372v-60h-401l-271 344v12l483 658h-324l-320 -470h-101v470h-410zM120 1074v-704h-60v704h60zM60 0v60h410v430h83l371 -430h480v-60h-510l-364 430v-430h-470zM60 1324h350v-463h185l322 467h182l-419 -598v-20
l294 -400h430v-190h-450l-378 424h-162v-424h-354v190h122v824h-122v190z" />
    <glyph glyph-name="L" unicode="L" horiz-adv-x="1312" 
d="M60 1384v60h470v-1014h782v-60h-842v1014h-410zM60 1074h60v-704h-60v704zM60 60h1252v-60h-1252v60zM60 1324h358v-1014h894v-190h-1252v190h122v824h-122v190z" />
    <glyph glyph-name="colon" unicode=":" horiz-adv-x="758" 
d="M156 0v397h446v-397h-446zM156 680v397h446v-397h-446zM216 333v-277h331v277h-331zM216 1017v-277h331v277h-331zM275 798v174h214v-174h-214zM272 98v189h221v-189h-221z" />
    <glyph glyph-name="quotedbl" unicode="&#x22;" horiz-adv-x="1139" 
d="M635 813v631h307v-631h-307zM699 875h187v511h-187v-511zM197 813v631h307v-631h-307zM753 941v392h82v-392h-82zM257 873h187v511h-187v-511zM313 933v392h82v-392h-82z" />
    <glyph glyph-name="Z" unicode="Z" horiz-adv-x="1380" 
d="M60 1384v60h1320v-430l-699 -584h699v-60h-759v85l699 578v351h-1260zM1380 0h-1320v430l699 584h-699v60h755v-85l-695 -586v-343h1260v-60zM60 1324h1202v-266l-696 -566v-182h814v-190h-1204v262l690 584v168h-805z" />
    <glyph glyph-name="X" unicode="X" horiz-adv-x="1248" 
d="M60 1384v60h296l294 -446l298 446h300v-60h-262l-303 -446h-65l-296 446h-262zM1248 0h-300l-298 446l-294 -446h-296v60h268l286 446h80l288 -446h266v-60zM60 370v60h12l244 292l-244 292h-12v60h60l256 -312v-70l-256 -322h-60zM1248 370v60h-12l-244 292l244 292h12
v60h-60l-256 -312v-70l256 -322h60zM60 1324h229l301 -432h120l300 432h238v-190h-109l-265 -338v-128l279 -358h95v-190h-222l-298 440h-146l-284 -440h-238v190h104l264 362v120l-266 342h-102v190z" />
    <glyph glyph-name="C" unicode="C" horiz-adv-x="1484" 
d="M1484 1384h-640q-164 -2 -300 -39t-241 -119t-167 -202t-66 -281q-2 -227 102 -379t280 -226t392 -78h640v-60h-640q-235 0 -425 83.5t-299.5 250.5t-109.5 409q0 170 65.5 303.5t181.5 222t266.5 132t320.5 43.5h640v-60zM1484 1074v-60h-452q-152 0 -225 -9t-130 -30
t-101 -73t-51 -184q5 -128 51 -183t112 -73t136 -25t208 -7h452v-60h-452q-136 -2 -216 7t-158 30t-131 93t-62 218q11 168 68 225t122 83t144.5 35.5t232.5 12.5h452zM1484 1328v-192h-452q-150 -2 -239 -13t-167 -41t-144 -96t-78 -266q12 -164 76 -248t155 -112t178 -38
t223 -10h448v-192h-640q-196 0 -358 70t-260 206t-98 348q8 152 64 260t154 180t222 104t280 40h636z" />
    <glyph glyph-name="V" unicode="V" horiz-adv-x="1586" 
d="M60 1444h419l328 -1109l332 1109h447v-60h-404l-329 -1109h-87l-334 1109h-372v60zM1203 0h-767l-364 1014h-12v60h62l352 -1014h693l365 1014h54v-60h-12zM107 1324h275l341 -1112h170l336 1112h357v-190h-87l-372 -1019h-617l-339 1019h-111v190h47z" />
    <glyph glyph-name="B" unicode="B" horiz-adv-x="1628" 
d="M60 1384v60h985q237 -2 360.5 -82t149.5 -268q9 -144 -61 -226t-231 -135v-4q79 -10 146 -42.5t112.5 -77t70.5 -100.5t25 -110q0 -171 -87.5 -259t-225 -115t-333.5 -25h-911v60h911q193 -4 323.5 22t198.5 104.5t64 212.5q0 53 -23 98t-54.5 84t-91.5 69t-174 78v8
q154 76 222.5 148t58.5 210q-22 158 -129 222.5t-321 67.5h-985zM120 1074v-704h-60v704h60zM60 120v190h124v824h-124v190h985q194 0 283.5 -52t113.5 -178q8 -128 -48 -188t-230 -174q151 -88 233.5 -157t105.5 -176q2 -98 -47.5 -163.5t-170.5 -90t-312 -25.5h-913z
M490 1153v-343h382q103 -3 175.5 46t72.5 123q5 85 -67 128.5t-181 45.5h-382zM554 1100h298q85 0 141 -29.5t53 -86.5q2 -52 -50 -83t-144 -33h-298v232zM607 1048v-120h246q123 0 137 56q-25 64 -137 64h-246zM486 622v-388h423q118 -3 192.5 44t81.5 148q-7 99 -78 148.5
t-196 47.5h-423zM538 570h345q101 3 163 -33t62 -108q0 -80 -50 -112t-175 -30h-345v283zM580 512v-164h320q140 -8 152 80q-8 84 -148 84h-324z" />
    <glyph glyph-name="N" unicode="N" horiz-adv-x="1430" 
d="M60 1384v60h470l430 -540v540h470v-60h-410v-538h-95l-420 538h-445zM1430 60v-60h-470l-430 540v-540h-470v60h410v540h95l430 -540h435zM1430 1074v-704h-60v704h60zM120 1074v-704h-60v704h60zM60 1324h414l418 -538h194v538h344v-190h-120v-824h120v-190h-400
l-432 537h-176v-537h-362v190h122l-1 824h-121v190z" />
    <glyph glyph-name="M" unicode="M" horiz-adv-x="1630" 
d="M60 1444h470l316 -600l314 600h470v-60h-435l-343 -624h-9l-348 624h-435v60zM1630 60v-60h-470v600l-302 -600h-26l-302 600v-600h-470v60h410v606h92l280 -582l285 576h93v-600h410zM1630 1074v-704h-60v704h60zM120 1074v-704h-60v704h60zM60 1324h400l380 -632h19
l380 632h391v-190h-122v-824h122v-190h-350v604h-188l-248 -516l-252 520h-180v-608h-352v190h122v824h-122v190z" />
    <glyph glyph-name="less" unicode="&#x3c;" 
d="M-1636 -82h1636v-60h-1636v60zM-1636 -452h1636v-60h-1636v60zM-1636 -202h1636v-190h-1636v190z" />
    <glyph glyph-name="greater" unicode="&#x3e;" 
d="M1636 -142h-1636v60h1636v-60zM1636 -512h-1636v60h1636v-60zM1636 -202v-190h-1636v190h1636z" />
    <glyph glyph-name="question" unicode="?" horiz-adv-x="1176" 
d="M628 656h-194q34 86 76 120t110 96t64 152q2 110 -85 157t-229 43q-96 -6 -178 -30v102q59 25 143.5 44.5t196.5 19.5q114 -4 218 -26t162 -78t70 -136q-16 -90 -50.5 -135.5t-118 -110t-128.5 -114t-57 -104.5zM283 385h446v-385h-446v385zM338 333v-277h335v277h-335z
M711 535h-410q8 143 47 218.5t89.5 113t94 71.5t43.5 86t-52 68t-150 16q-69 0 -150.5 -20.5t-138.5 -47.5v353q118 37 221.5 56t224.5 19q122 0 250 -28.5t220 -106.5t92 -213q0 -104 -48.5 -172.5t-147 -148.5t-142 -132t-43.5 -132zM392 102v189h221v-189h-221zM660 594
q-2 48 49 107t145 136t133 131t45 152q-10 104 -83 171t-187 93t-232 24q-114 2 -212 -18t-174 -56v-204q24 10 84 23t144 15q120 6 191 -26t73 -118q-4 -80 -57 -125t-97 -78t-79 -90t-47 -137h304z" />
    <glyph glyph-name="glyph98" horiz-adv-x="2059" 
d="M181 992v-23l117 5q11 18 -53 47q-41 0 -64 -29zM286 1266v-6h12v6h-12zM298 1260v-11l17 -12l12 12l-6 17zM286 776h47l23 -23q0 -76 -29 -76q-64 -12 -76 47q6 40 35 52zM181 1079q82 18 163 -40l41 -94l-6 -23l-181 -18h-75l-6 12q-18 140 64 163zM373 1529l53 -47h6
l-12 41l-17 12zM239 1324l187 -5l12 -6q-6 -24 11 -29v-30h-58l-18 -52l30 -53l-35 -17q-30 -6 -35 12l-170 163zM455 1465v-6h6v6h-6zM379 1605l59 -18l40 -64l88 -12l12 -29v-41l-117 18v-12l70 -41l-23 -47l-41 12l-76 64q-35 12 -99 76q41 82 87 94zM461 595
q76 23 128 -47l-41 -52h-23q-12 23 -52 23q-30 -23 -41 -52q6 -64 17 -64l-46 -41q-35 -6 -41 87q35 134 99 146zM613 309v-29q17 0 11 -17q53 0 88 87q6 35 -18 53q-17 5 -58 -41zM671 461q29 6 82 -18l23 -29v-81q-41 -111 -128 -135q-88 12 -100 70q0 146 123 193z
M554 1762l35 -6l24 -46l17 -12l-6 105l65 -23l5 -94q76 -23 88 -52l-6 -64l-87 46h-12l6 -23h11l24 -53l-41 -29l-64 76l-82 134v24zM764 1214v-30l35 88l12 6v17l-23 -23zM811 1307v-12l12 6v12zM823 1319v-6h6v6h-6zM829 1324v-5h5v5h-5zM834 1336v-6h6v6h-6zM840 1342v-6
h6v6h-6zM939 1254v-17h12l-6 17h-6zM951 1237v-12h12l-6 12h-6zM963 1225v-11h11l-5 11h-6zM974 1214v-6h12v6h-12zM928 1791q41 0 58 -29q18 -52 -41 -76q-58 6 -64 35q-23 35 47 70zM986 1208v-6h6v6h-6zM998 1202l11 -18h12l-17 18h-6zM1021 1184v-11h23l-5 11h-18z
M893 403q41 -65 35 -105l23 -18l47 99q23 6 23 -17q35 -146 23 -152l12 -23v-53l-35 -17l-23 6l-18 105l-52 -88l-47 88l-29 -100l-53 30l35 110l12 12q-6 23 35 93v24zM747 1068l17 -140h12l23 -88l47 -93l152 -6l70 6l-105 12l-82 -6q-35 -6 -99 175q-23 64 -23 134l5 122
l-11 -17l-6 -70q12 -12 0 -29zM1068 1190v-6h11v6h-11zM811 601l327 -6l-12 -29l-309 6l-12 17zM823 648h291l24 -18v-17l-333 5q6 30 18 30zM834 560l280 -6l24 -17l11 -47l12 -12l-6 -11l-367 11q35 88 46 82zM1132 1307l17 -23l12 5l-12 18h-17zM1138 397h35l52 -234v-23
l-46 -12q-24 18 -65 222q-11 47 24 47zM1138 1855l46 -5l12 -12q-17 -35 -17 -88l29 -5h23l18 87l52 -6l6 -11l-58 -251l-59 11q6 70 18 70q17 41 -35 41l-18 -6l-17 -87l-59 6q18 140 59 256zM1289 1103v-18l24 12v6h-24zM998 1564l46 -12l47 -47l23 -46l-5 -24
q46 12 52 -70h12l128 -175l53 -105q11 -23 -53 -64h-17q-35 41 -59 35l29 -64q-23 -29 -52 -35l-47 41q0 99 -52 128l-47 23l-35 6l-23 -35v-99l58 -70l93 -47l12 -11l12 -82q-24 -146 -53 -158l-303 6q-88 123 -111 362v123l35 128l35 64l70 76q64 53 158 82zM1330 473
q29 17 59 -41l-35 -47q-12 -47 52 -76l59 6l23 -29l-6 -41q-152 -17 -204 105v64q23 41 52 59zM1418 1570v-41l12 -6l46 12l47 64v41l-12 5q-41 12 -93 -75zM1465 1710q99 17 128 -59q12 -58 -47 -134q-58 -64 -99 -64q-88 6 -99 82q11 122 117 175zM1488 607l35 -6
q0 -18 23 -18l-17 -52l76 -6l35 -23l23 -76l-23 -64q-18 -6 -59 35l18 46l-29 12q-88 -12 -105 76zM1651 1383v-6h35l29 23v18zM1710 753q64 -18 52 -41q12 -23 -29 -64q-53 -18 -76 35q0 70 53 70zM1721 1500l47 -53l12 -35q17 -82 -111 -88l-35 -75l-70 5l6 30l58 75v6
l-82 -52l-35 29q-6 29 12 35zM1651 1173h24v-18l17 -17h18l35 58q99 47 145 -52q0 -30 -46 -35l-41 35l-41 -59q-105 -41 -157 59zM1640 969h58l198 -30l-6 -99l-52 6l-6 -6l-6 47l-35 12l-6 -35l-46 -6l-18 6v40h-35l-6 -46l-64 11l12 94zM53 1062v-152l11 -17v-59l12 -11
l12 -82l11 -6v-29l82 -181l117 -152l58 -58l128 -99q216 -128 455 -152l199 6q99 18 245 64v12l64 17l123 76l163 146l117 163q99 222 110 380q18 210 -64 426l-99 181q-280 385 -753 408l-157 -6l-204 -47q-286 -99 -479 -367q-128 -204 -151 -461zM1144 1990
q239 -35 431 -164l175 -151q117 -135 187 -298q6 -53 41 -128q117 -467 -193 -887q-297 -333 -694 -362q-181 -6 -286 18q-700 180 -793 898q-6 181 17 286q175 671 846 788h269z" />
    <glyph glyph-name="quoteleft" unicode="&#x2018;" horiz-adv-x="647" 
d="M474 816zM370 1108l-92 98v118h92v-216zM477 814l-307 314v316h307v-630zM417 971v413h-187v-222z" />
    <glyph glyph-name="quoteright" unicode="&#x2019;" horiz-adv-x="647" 
d="M416 1162v222h-187v-413zM169 1444h307v-316l-307 -314v630zM277 1324h92l-1 -132l-92 -96z" />
    <glyph glyph-name="quotedblleft" unicode="&#x201c;" horiz-adv-x="1139" 
d="M940 816zM502 816zM504 814l-307 314v316h307v-630zM942 814l-307 314v316h307v-630zM882 971v413h-187v-222zM444 971v413h-187v-222zM396 1100l-92 94v132h92v-226zM834 1098l-92 100v136h92v-236z" />
    <glyph glyph-name="quotedblright" unicode="&#x201d;" horiz-adv-x="1139" 
d="M634 1444h307v-316l-307 -314v630zM196 1444h307v-316l-307 -314v630zM443 1162v222h-187v-413zM881 1162v222h-187v-413zM301 1330h92l-1 -132l-92 -96zM741 1330h92l-1 -132l-92 -96z" />
    <glyph glyph-name="Agrave" unicode="&#xc0;" horiz-adv-x="1492" 
d="M60 60h370l92 260h508l92 -260h370v-60h-410l-92 260h-428l-92 -260h-410v60zM1480 430h12v-60h-60l-326 1014h-630l-354 -1014h-62v60h12l354 1014h730zM660 612h238l-110 322zM60 120v190h128l332 1006h524l339 -1006h109v-190h-321l-111 264h-588l-90 -264h-322z
M786 1057l186 -489h-386zM792 1181l-282 -671h549zM267 1800h462l176 -318zM582 1720l153 -70l-47 70h-106zM480 1742l320 -150l-98 150h-222z" />
    <glyph glyph-name="agrave" unicode="&#xe0;" horiz-adv-x="1615" 
d="M0 0l475 1444h717l483 -1444h-546l-91 260h-429l-91 -260h-518zM84 60h394l93 260h515l94 -260h413l-440 1324h-628zM708 612h238l-110 322zM307 1796h462l176 -318zM504 1742l320 -150l-98 150h-222zM184 132l396 1188h524l400 -1188h-276l-108 256h-588l-96 -256h-252z
M838 1057l186 -489h-386zM840 1181l-282 -671h549zM604 1720l153 -70l-47 70h-106z" />
    <glyph glyph-name="Aacute" unicode="&#xc1;" horiz-adv-x="1492" 
d="M60 60h370l92 260h508l92 -260h370v-60h-410l-92 260h-428l-92 -260h-410v60zM1480 430h12v-60h-60l-326 1014h-630l-354 -1014h-62v60h12l354 1014h730zM660 612h238l-110 322zM60 120v190h128l332 1006h524l339 -1006h109v-190h-321l-111 264h-588l-90 -264h-322z
M786 1057l186 -489h-386zM792 1181l-282 -671h549zM685 1478l176 318h462zM902 1742l-94 -150l310 150h-216zM1026 1720l-153 -70l47 70h106z" />
    <glyph glyph-name="aacute" unicode="&#xe1;" horiz-adv-x="1615" 
d="M0 0l475 1444h717l483 -1444h-546l-91 260h-429l-91 -260h-518zM84 60h394l93 260h515l94 -260h413l-440 1324h-628zM708 612h238l-110 322zM745 1478l176 318h462zM958 1742l-94 -150l310 150h-216zM184 132l396 1188h524l400 -1188h-276l-108 256h-588l-96 -256h-252z
M838 1057l186 -489h-386zM840 1181l-282 -671h549zM1084 1720l-153 -70l47 70h106z" />
    <glyph glyph-name="Acircumflex" unicode="&#xc2;" horiz-adv-x="1492" 
d="M60 60h370l92 260h508l92 -260h370v-60h-410l-92 260h-428l-92 -260h-410v60zM1480 430h12v-60h-60l-326 1014h-630l-354 -1014h-62v60h12l354 1014h730zM660 612h238l-110 322zM60 120v190h128l332 1006h524l339 -1006h109v-190h-321l-111 264h-588l-90 -264h-322z
M786 1057l186 -489h-386zM792 1181l-282 -671h549zM784 1704l196 -120l-196 172l-190 -180zM1066 1472l-277 174l-280 -171v59l278 283l279 -283v-62z" />
    <glyph glyph-name="acircumflex" unicode="&#xe2;" horiz-adv-x="1615" 
d="M0 0l475 1444h717l483 -1444h-546l-91 260h-429l-91 -260h-518zM84 60h394l93 260h515l94 -260h413l-440 1324h-628zM708 612h238l-110 322zM1114 1472l-277 174l-280 -171v59l278 283l279 -283v-62zM832 1696l196 -120l-196 172l-190 -180zM184 132l396 1188h524
l400 -1188h-276l-108 256h-588l-96 -256h-252zM838 1057l186 -489h-386zM840 1181l-282 -671h549z" />
    <glyph glyph-name="Atilde" unicode="&#xc3;" horiz-adv-x="1492" 
d="M60 60h370l92 260h508l92 -260h370v-60h-410l-92 260h-428l-92 -260h-410v60zM1480 430h12v-60h-60l-326 1014h-630l-354 -1014h-62v60h12l354 1014h730zM660 612h238l-110 322zM60 120v190h128l332 1006h524l339 -1006h109v-190h-321l-111 264h-588l-90 -264h-322z
M786 1057l186 -489h-386zM792 1181l-282 -671h549zM1164 1636q-240 -232 -408 -50t-253 15l-60 47q147 270 322 79t323 -51zM560 1724q64 -4 121 -20t153 -118t210 14q-120 -42 -171 -15t-131 112t-182 27z" />
    <glyph glyph-name="atilde" unicode="&#xe3;" horiz-adv-x="1615" 
d="M0 0l475 1444h717l483 -1444h-546l-91 260h-429l-91 -260h-518zM84 60h394l93 260h515l94 -260h413l-440 1324h-628zM708 612h238l-110 322zM604 1724q64 -4 121 -20t153 -118t210 14q-120 -42 -171 -15t-131 112t-182 27zM1208 1636q-240 -232 -408 -50t-253 15l-60 47
q147 270 322 79t323 -51zM184 132l396 1188h524l400 -1188h-276l-108 256h-588l-96 -256h-252zM838 1057l186 -489h-386zM840 1181l-282 -671h549z" />
    <glyph glyph-name="Adieresis" unicode="&#xc4;" horiz-adv-x="1492" 
d="M60 60h370l92 260h508l92 -260h370v-60h-410l-92 260h-428l-92 -260h-410v60zM1480 430h12v-60h-60l-326 1014h-630l-354 -1014h-62v60h12l354 1014h730zM660 612h238l-110 322zM60 120v190h128l332 1006h524l339 -1006h109v-190h-321l-111 264h-588l-90 -264h-322z
M786 1057l186 -489h-386zM792 1181l-282 -671h549zM631 1764q51 0 83.5 -33.5t32.5 -83.5q-5 -61 -38.5 -92t-83.5 -31q-48 0 -81 33t-33 83q0 56 33 90t87 34zM951 1768q51 0 83.5 -33.5t32.5 -83.5q-5 -61 -38.5 -92t-83.5 -31q-48 0 -81 33t-33 83q0 56 33 90t87 34z
M631 1706q-31 0 -49.5 -18.5t-18.5 -50.5q0 -28 18.5 -46.5t45.5 -18.5q29 0 48 17.5t22 51.5q0 28 -18.5 46.5t-47.5 18.5zM951 1710q-31 0 -49.5 -18.5t-18.5 -50.5q0 -28 18.5 -46.5t45.5 -18.5q29 0 48 17.5t22 51.5q0 28 -18.5 46.5t-47.5 18.5zM952 1682
q17 0 28 -10.5t11 -26.5q-2 -20 -13 -30.5t-28 -10.5q-16 0 -26.5 11t-10.5 27q0 19 10.5 29.5t28.5 10.5zM632 1678q17 0 28 -10.5t11 -26.5q-2 -20 -13 -30.5t-28 -10.5q-16 0 -26.5 11t-10.5 27q0 19 10.5 29.5t28.5 10.5z" />
    <glyph glyph-name="adieresis" unicode="&#xe4;" horiz-adv-x="1615" 
d="M0 0l475 1444h717l483 -1444h-546l-91 260h-429l-91 -260h-518zM84 60h394l93 260h515l94 -260h413l-440 1324h-628zM708 612h238l-110 322zM671 1764q51 0 83.5 -33.5t32.5 -83.5q-5 -61 -38.5 -92t-83.5 -31q-48 0 -81 33t-33 83q0 56 33 90t87 34zM1001 1764
q51 0 83.5 -33.5t32.5 -83.5q-5 -61 -38.5 -92t-83.5 -31q-48 0 -81 33t-33 83q0 56 33 90t87 34zM671 1706q-31 0 -49.5 -18.5t-18.5 -50.5q0 -28 18.5 -46.5t45.5 -18.5q29 0 48 17.5t22 51.5q0 28 -18.5 46.5t-47.5 18.5zM1003 1706q-31 0 -49.5 -18.5t-18.5 -50.5
q0 -28 18.5 -46.5t45.5 -18.5q29 0 48 17.5t22 51.5q0 28 -18.5 46.5t-47.5 18.5zM184 132l396 1188h524l400 -1188h-276l-108 256h-588l-96 -256h-252zM838 1057l186 -489h-386zM840 1181l-282 -671h549zM670 1678q17 0 28 -10.5t11 -26.5q-2 -20 -13 -30.5t-28 -10.5
q-16 0 -26.5 11t-10.5 27q0 19 10.5 29.5t28.5 10.5zM1004 1678q17 0 28 -10.5t11 -26.5q-2 -20 -13 -30.5t-28 -10.5q-16 0 -26.5 11t-10.5 27q0 19 10.5 29.5t28.5 10.5z" />
    <glyph glyph-name="Aring" unicode="&#xc5;" horiz-adv-x="1492" 
d="M60 60h370l92 260h508l92 -260h370v-60h-410l-92 260h-428l-92 -260h-410v60zM1480 430h12v-60h-60l-326 1014h-630l-354 -1014h-62v60h12l354 1014h730zM660 612h238l-110 322zM60 120v190h128l332 1006h524l339 -1006h109v-190h-321l-111 264h-588l-90 -264h-322z
M786 1057l186 -489h-386zM792 1181l-282 -671h549zM786 1848q83 0 137.5 -55t54.5 -136q0 -82 -59.5 -140.5t-141.5 -58.5q-79 0 -133.5 53t-54.5 135q0 91 55 146.5t142 55.5zM781 1768q-54 0 -87 -34t-33 -90q0 -50 33 -83t81 -33q50 0 83.5 31t38.5 92q0 50 -32.5 83.5
t-83.5 33.5z" />
    <glyph glyph-name="aring" unicode="&#xe5;" horiz-adv-x="1615" 
d="M0 0l475 1444h717l483 -1444h-546l-91 260h-429l-91 -260h-518zM84 60h394l93 260h515l94 -260h413l-440 1324h-628zM708 612h238l-110 322zM834 1848q83 0 137.5 -55t54.5 -136q0 -82 -59.5 -140.5t-141.5 -58.5q-79 0 -133.5 53t-54.5 135q0 91 55 146.5t142 55.5z
M837 1768q-54 0 -87 -34t-33 -90q0 -50 33 -83t81 -33q50 0 83.5 31t38.5 92q0 50 -32.5 83.5t-83.5 33.5zM184 132l396 1188h524l400 -1188h-276l-108 256h-588l-96 -256h-252zM838 1057l186 -489h-386zM840 1181l-282 -671h549z" />
    <glyph glyph-name="AE" unicode="&#xc6;" horiz-adv-x="2094" 
d="M1032 1384h-556l-356 -1014h-60v60h12l354 1014h1606v-430h-768v-166h496v-252h-496v-166h830v-60h-890v284h496v134h-496v286h768v310h-940zM60 60h370l87 260h331v-260h1246v-60h-1306v260h-227l-91 -260h-410v60zM60 120v190h128l336 1014h1404v-190h-773v-382h497
v-54h-497v-388h939v-190h-1188v264h-434l-90 -264h-322zM828 1220l-318 -710l318 2v708zM786 1045l-2 -489h-198zM644 604h104v258z" />
    <glyph glyph-name="ae" unicode="&#xe6;" horiz-adv-x="2118" 
d="M812 0v260h-227l-91 -260h-518l475 1444h1605v-430h-768v-166h496v-252h-496v-166h830v-430h-1306zM1056 1384h-561l-441 -1324h394l93 260h331v-260h1186v310h-830v284h496v134h-496v286h768v310h-940zM136 120l404 1204h1404v-190h-773v-382h497v-54h-497v-388l833 2
v-192h-1082v264h-434l-90 -264h-262zM888 1220l-318 -710l318 2v708zM854 1045l-2 -489h-198zM716 600h104v258z" />
    <glyph glyph-name="Ccedilla" unicode="&#xc7;" horiz-adv-x="1484" 
d="M1484 1384h-640q-164 -2 -300 -39t-241 -119t-167 -202t-66 -281q-2 -227 102 -379t280 -226t360 -76v-228q44 -4 109 -44t71 -118q2 -58 -23 -90t-133 -54q112 12 166 44t77 60t27 72q-8 66 -65 98t-147 50v208h590v-60h-526v-112q107 -20 159 -68t52 -116
q0 -92 -101.5 -160.5t-261.5 -68.5q-63 0 -159 8l15 87q42 -12 100 -14q100 0 135.5 31t35.5 85q0 38 -39 66t-97 28q-17 0 -44 -3l-1 241q-143 -4 -333 79.5t-299.5 250.5t-109.5 409q0 170 65.5 303.5t181.5 222t266.5 132t320.5 43.5h396h244v-60zM1484 1074v-60h-452
q-152 0 -225 -9t-130 -30t-101 -73t-51 -184q5 -128 51 -183t112 -73t136 -25t208 -7h452v-60h-452q-136 -2 -216 7t-158 30t-131 93t-62 218q11 168 68 225t122 83t144.5 35.5t232.5 12.5h452zM1484 1328v-192h-452q-150 -2 -239 -13t-167 -41t-144 -96t-78 -266
q12 -164 76 -248t155 -112t178 -38t223 -10h448v-192h-640q-196 0 -358 70t-260 206t-98 348q8 152 64 260t154 180t222 104t280 40h636zM842 119h22v-271q106 -34 152 -61t70 -83q-6 -36 -27 -62t-67 -56q22 40 26 90q-20 78 -40 98t-136 76v269z" />
    <glyph glyph-name="ccedilla" unicode="&#xe7;" horiz-adv-x="1484" 
d="M752 4q-143 -4 -333 79.5t-299.5 250.5t-109.5 409q0 170 65.5 303.5t181.5 222t266.5 132t320.5 43.5h396h244v-430h-452q-152 0 -225 -9t-130 -30t-101 -73t-51 -184q5 -128 51 -183t112 -73t136 -25t208 -7h452v-430h-526v-112q107 -20 159 -68t52 -116
q0 -92 -101.5 -160.5t-261.5 -68.5q-63 0 -159 8l15 87q42 -12 100 -14q100 0 135.5 31t35.5 85q0 38 -39 66t-97 28q-17 0 -44 -3zM1424 1384h-580q-164 -2 -300 -39t-241 -119t-167 -202t-66 -281q-2 -227 102 -379t280 -226t360 -76v-228q44 -4 109 -44t71 -118
q2 -58 -23 -90t-133 -54q112 12 166 44t77 60t27 72q-8 66 -65 98t-147 50v208h240h290v310h-392q-136 -2 -216 7t-158 30t-131 93t-62 218q11 168 68 225t122 83t144.5 35.5t232.5 12.5h392v310zM1378 1328v-192h-346q-150 -2 -239 -13t-167 -41t-144 -96t-78 -266
q12 -164 76 -248t155 -112t178 -38t223 -10h336v-192h-528q-196 0 -358 70t-260 206t-98 348q8 152 64 260t154 180t222 104t280 40h530zM842 119h22v-271q106 -34 152 -61t70 -83q-6 -36 -27 -62t-67 -56q22 40 26 90q-20 78 -40 98t-136 76v269z" />
    <glyph glyph-name="Egrave" unicode="&#xc8;" horiz-adv-x="1360" 
d="M60 1384v60h1240v-60h-1240zM120 370h-60v704h60v-704zM1300 1074v-60h-770v-166h496v-252h-496v-166h830v-60h-890v284h496v134h-496v286h830zM1360 60v-60h-1300v60h1300zM203 1796h462l176 -318zM408 1742l320 -150l-98 150h-222zM60 1324h1240v-190h-880v-386h484
v-54h-486v-382l942 -2v-190h-1300v190h122v824h-122v190zM514 1718l153 -70l-47 70h-106z" />
    <glyph glyph-name="egrave" unicode="&#xe8;" horiz-adv-x="1360" 
d="M60 0v1444h1238v-430h-768v-166h496v-252h-496v-166h830v-430h-1300zM203 1796h462l176 -318zM120 1384v-1324h1180v310h-830v284h496v134h-496v286h768v310h-1118zM408 1742l320 -150l-98 150h-222zM180 1324h1000v-188h-760v-388h484v-54h-486l-2 -386h824v-192h-1060
v1208zM514 1718l153 -70l-47 70h-106z" />
    <glyph glyph-name="Eacute" unicode="&#xc9;" horiz-adv-x="1360" 
d="M60 1384v60h1240v-60h-1240zM120 370h-60v704h60v-704zM1300 1074v-60h-770v-166h496v-252h-496v-166h830v-60h-890v284h496v134h-496v286h830zM1360 60v-60h-1300v60h1300zM673 1478l176 318h462zM886 1742l-94 -150l310 150h-216zM60 1324h1240v-190h-880v-386h484v-54
h-486v-382l942 -2v-190h-1300v190h122v824h-122v190zM1010 1720l-153 -70l47 70h106z" />
    <glyph glyph-name="eacute" unicode="&#xe9;" horiz-adv-x="1360" 
d="M60 0v1444h1238v-430h-768v-166h496v-252h-496v-166h830v-430h-1300zM673 1478l176 318h462zM120 1384v-1324h1180v310h-830v284h496v134h-496v286h768v310h-1118zM886 1742l-94 -150l310 150h-216zM180 1324h1000v-188h-760v-388h484v-54h-486l-2 -386h824v-192h-1060
v1208zM1010 1720l-153 -70l47 70h106z" />
    <glyph glyph-name="Ecircumflex" unicode="&#xca;" horiz-adv-x="1360" 
d="M60 1384v60h1240v-60h-1240zM120 370h-60v704h60v-704zM1300 1074v-60h-770v-166h496v-252h-496v-166h830v-60h-890v284h496v134h-496v286h830zM1360 60v-60h-1300v60h1300zM1030 1472l-277 174l-280 -171v59l278 283l279 -283v-62zM752 1696l196 -120l-196 172
l-190 -180zM60 1324h1240v-190h-880v-386h484v-54h-486v-382l942 -2v-190h-1300v190h122v824h-122v190z" />
    <glyph glyph-name="ecircumflex" unicode="&#xea;" horiz-adv-x="1360" 
d="M60 0v1444h1238v-430h-768v-166h496v-252h-496v-166h830v-430h-1300zM1030 1472l-277 174l-280 -171v59l278 283l279 -283v-62zM120 1384v-1324h1180v310h-830v284h496v134h-496v286h768v310h-1118zM752 1696l196 -120l-196 172l-190 -180zM180 1324h1000v-188h-760v-388
h484v-54h-486l-2 -386h824v-192h-1060v1208z" />
    <glyph glyph-name="Edieresis" unicode="&#xcb;" horiz-adv-x="1360" 
d="M60 1384v60h1240v-60h-1240zM120 370h-60v704h60v-704zM1300 1074v-60h-770v-166h496v-252h-496v-166h830v-60h-890v284h496v134h-496v286h830zM1360 60v-60h-1300v60h1300zM563 1764q51 0 83.5 -33.5t32.5 -83.5q-5 -61 -38.5 -92t-83.5 -31q-48 0 -81 33t-33 83
q0 56 33 90t87 34zM941 1764q51 0 83.5 -33.5t32.5 -83.5q-5 -61 -38.5 -92t-83.5 -31q-48 0 -81 33t-33 83q0 56 33 90t87 34zM563 1710q-31 0 -49.5 -18.5t-18.5 -50.5q0 -28 18.5 -46.5t45.5 -18.5q29 0 48 17.5t22 51.5q0 28 -18.5 46.5t-47.5 18.5zM939 1712
q-31 0 -49.5 -18.5t-18.5 -50.5q0 -28 18.5 -46.5t45.5 -18.5q29 0 48 17.5t22 51.5q0 28 -18.5 46.5t-47.5 18.5zM60 1324h1240v-190h-880v-386h484v-54h-486v-382l942 -2v-190h-1300v190h122v824h-122v190zM564 1680q17 0 28 -10.5t11 -26.5q-2 -20 -13 -30.5t-28 -10.5
q-16 0 -26.5 11t-10.5 27q0 19 10.5 29.5t28.5 10.5zM940 1684q17 0 28 -10.5t11 -26.5q-2 -20 -13 -30.5t-28 -10.5q-16 0 -26.5 11t-10.5 27q0 19 10.5 29.5t28.5 10.5z" />
    <glyph glyph-name="edieresis" unicode="&#xeb;" horiz-adv-x="1360" 
d="M60 0v1444h1238v-430h-768v-166h496v-252h-496v-166h830v-430h-1300zM563 1764q51 0 83.5 -33.5t32.5 -83.5q-5 -61 -38.5 -92t-83.5 -31q-48 0 -81 33t-33 83q0 56 33 90t87 34zM941 1764q51 0 83.5 -33.5t32.5 -83.5q-5 -61 -38.5 -92t-83.5 -31q-48 0 -81 33t-33 83
q0 56 33 90t87 34zM120 1384v-1324h1180v310h-830v284h496v134h-496v286h768v310h-1118zM563 1710q-31 0 -49.5 -18.5t-18.5 -50.5q0 -28 18.5 -46.5t45.5 -18.5q29 0 48 17.5t22 51.5q0 28 -18.5 46.5t-47.5 18.5zM941 1712q-31 0 -49.5 -18.5t-18.5 -50.5
q0 -28 18.5 -46.5t45.5 -18.5q29 0 48 17.5t22 51.5q0 28 -18.5 46.5t-47.5 18.5zM180 1324h1000v-188h-760v-388h484v-54h-486l-2 -386h824v-192h-1060v1208zM940 1684q17 0 28 -10.5t11 -26.5q-2 -20 -13 -30.5t-28 -10.5q-16 0 -26.5 11t-10.5 27q0 19 10.5 29.5
t28.5 10.5zM564 1680q17 0 28 -10.5t11 -26.5q-2 -20 -13 -30.5t-28 -10.5q-16 0 -26.5 11t-10.5 27q0 19 10.5 29.5t28.5 10.5z" />
    <glyph glyph-name="Igrave" unicode="&#xcc;" horiz-adv-x="550" 
d="M40 1444h470v-1444h-470v1444zM26 1796h371l113 -316zM100 1384v-1324h350v1324h-350zM168 1746l260 -150l-80 150h-180zM161 1318l227 2v-1200l-227 -3v1201zM254 1724l119 -70l-37 70h-82z" />
    <glyph glyph-name="igrave" unicode="&#xec;" horiz-adv-x="550" 
d="M40 1444h470v-1444h-470v1444zM26 1796h371l113 -316zM100 1384v-1324h350v1324h-350zM168 1746l260 -150l-80 150h-180zM161 1318l227 2v-1200l-227 -3v1201zM254 1724l119 -70l-37 70h-82z" />
    <glyph glyph-name="Iacute" unicode="&#xcd;" horiz-adv-x="550" 
d="M508 1444v-1444h-468v1444h468zM26 1480l113 316h371zM100 1384v-1324h350v1324h-350zM188 1746l-75 -150l243 150h-168zM161 1318l227 2v-1200l-227 -3v1201zM282 1724l-119 -70l37 70h82z" />
    <glyph glyph-name="iacute" unicode="&#xed;" horiz-adv-x="550" 
d="M508 1444v-1444h-468v1444h468zM26 1480l113 316h371zM100 1384v-1324h350v1324h-350zM188 1746l-75 -150l243 150h-168zM161 1318l227 2v-1200l-227 -3v1201zM282 1724l-119 -70l37 70h82z" />
    <glyph glyph-name="Icircumflex" unicode="&#xce;" horiz-adv-x="550" 
d="M40 1444h470v-1444h-470v1444zM502 1478l-228 174l-229 -171v59l228 283l229 -283v-62zM100 1384v-1324h350v1324h-350zM272 1704l160 -120l-160 172l-154 -180zM161 1318l227 2v-1200l-227 -3v1201z" />
    <glyph glyph-name="icircumflex" unicode="&#xee;" horiz-adv-x="550" 
d="M40 1444h470v-1444h-470v1444zM502 1478l-228 174l-229 -171v59l228 283l229 -283v-62zM100 1384v-1324h350v1324h-350zM272 1704l160 -120l-160 172l-154 -180zM161 1318l227 2v-1200l-227 -3v1201z" />
    <glyph glyph-name="Idieresis" unicode="&#xcf;" horiz-adv-x="550" 
d="M40 1444h470v-1444h-470v1444zM123 1764q51 0 83.5 -33.5t32.5 -83.5q-5 -61 -38.5 -92t-83.5 -31q-48 0 -81 33t-33 83q0 56 33 90t87 34zM435 1764q51 0 83.5 -33.5t32.5 -83.5q-5 -61 -38.5 -92t-83.5 -31q-48 0 -81 33t-33 83q0 56 33 90t87 34zM100 1384v-1324h350
v1324h-350zM123 1706q-31 0 -49.5 -18.5t-18.5 -50.5q0 -28 18.5 -46.5t45.5 -18.5q29 0 48 17.5t22 51.5q0 28 -18.5 46.5t-47.5 18.5zM435 1706q-31 0 -49.5 -18.5t-18.5 -50.5q0 -28 18.5 -46.5t45.5 -18.5q29 0 48 17.5t22 51.5q0 28 -18.5 46.5t-47.5 18.5zM161 1318
l227 2v-1200l-227 -3v1201zM122 1678q17 0 28 -10.5t11 -26.5q-2 -20 -13 -30.5t-28 -10.5q-16 0 -26.5 11t-10.5 27q0 19 10.5 29.5t28.5 10.5zM434 1678q17 0 28 -10.5t11 -26.5q-2 -20 -13 -30.5t-28 -10.5q-16 0 -26.5 11t-10.5 27q0 19 10.5 29.5t28.5 10.5z" />
    <glyph glyph-name="idieresis" unicode="&#xef;" horiz-adv-x="550" 
d="M40 1444h470v-1444h-470v1444zM123 1764q51 0 83.5 -33.5t32.5 -83.5q-5 -61 -38.5 -92t-83.5 -31q-48 0 -81 33t-33 83q0 56 33 90t87 34zM435 1764q51 0 83.5 -33.5t32.5 -83.5q-5 -61 -38.5 -92t-83.5 -31q-48 0 -81 33t-33 83q0 56 33 90t87 34zM100 1384v-1324h350
v1324h-350zM123 1706q-31 0 -49.5 -18.5t-18.5 -50.5q0 -28 18.5 -46.5t45.5 -18.5q29 0 48 17.5t22 51.5q0 28 -18.5 46.5t-47.5 18.5zM435 1706q-31 0 -49.5 -18.5t-18.5 -50.5q0 -28 18.5 -46.5t45.5 -18.5q29 0 48 17.5t22 51.5q0 28 -18.5 46.5t-47.5 18.5zM161 1318
l227 2v-1200l-227 -3v1201zM122 1678q17 0 28 -10.5t11 -26.5q-2 -20 -13 -30.5t-28 -10.5q-16 0 -26.5 11t-10.5 27q0 19 10.5 29.5t28.5 10.5zM434 1678q17 0 28 -10.5t11 -26.5q-2 -20 -13 -30.5t-28 -10.5q-16 0 -26.5 11t-10.5 27q0 19 10.5 29.5t28.5 10.5z" />
    <glyph glyph-name="Eth" unicode="&#xd0;" horiz-adv-x="1804" 
d="M212 0v542h-254v252h254v650h852q173 0 305 -46t223 -124t151.5 -211t60.5 -346q-11 -197 -66 -335t-146 -218t-222.5 -124t-329.5 -40h-828zM694 1086h273q95 0 154 -39.5t96.5 -109t40.5 -215.5q-10 -160 -46 -221.5t-93 -101t-150 -39.5h-277v248h280v128h-278v350z
M272 60h768q240 6 343 47t171 104t126 186t64 325q-8 194 -29 251t-54 122t-103 133t-195 114t-299 42h-792v-660h-252v-116h252v-548zM754 1031v-235h286v-252h-288v-126l209 -1q87 3 128 39t61.5 77.5t31.5 189.5q-8 125 -31 178t-65 90.5t-127 39.5h-205zM336 120v530
h-244v32h244v638l721 -3q161 5 275.5 -37t178.5 -103.5t95 -120.5t49.5 -110.5t26.5 -226.5q-7 -182 -59.5 -293.5t-115 -168.5t-157 -93.5t-315.5 -43.5h-699zM626 1143v-451h290v-40h-290v-352h341q117 0 188.5 46.5t115.5 118.5t57 258q-4 168 -51 249t-120 126t-192 45
h-339z" />
    <glyph glyph-name="eth" unicode="&#xf0;" horiz-adv-x="1804" 
d="M212 0v542h-254v252h254v650h852q173 0 305 -46t223 -124t151.5 -211t60.5 -346q-11 -197 -66 -335t-146 -218t-222.5 -124t-329.5 -40h-828zM694 1086h273q95 0 154 -39.5t96.5 -109t40.5 -215.5q-10 -160 -46 -221.5t-93 -101t-150 -39.5h-275l-2 248h280v128h-280z
M272 60h768q240 6 343 47t171 104t126 186t64 325q-8 194 -29 251t-54 122t-103 133t-195 114t-299 42h-792v-662l-252 2v-116h252v-548zM754 1031l-2 -235h288v-252h-288l2 -127h207q87 3 128 39t61.5 77.5t31.5 189.5q-8 125 -31 178t-65 90.5t-127 39.5h-205zM336 120
v530h-244v32h244v638l721 -3q161 5 275.5 -37t178.5 -103.5t95 -120.5t49.5 -110.5t26.5 -226.5q-7 -182 -59.5 -293.5t-115 -168.5t-157 -93.5t-315.5 -43.5h-699zM626 1143v-451h290v-40h-290v-352h341q117 0 188.5 46.5t115.5 118.5t57 258q-4 168 -51 249t-120 126
t-192 45h-339z" />
    <glyph glyph-name="Ntilde" unicode="&#xd1;" horiz-adv-x="1430" 
d="M60 1384v60h470l430 -540v540h470v-60h-410v-538h-95l-420 538h-445zM1430 60v-60h-470l-430 540v-540h-470v60h410v540h95l430 -540h435zM1430 1074v-704h-60v704h60zM120 1074v-704h-60v704h60zM1064 1628q-240 -232 -408 -50t-253 15l-60 47q147 270 322 79t323 -51z
M456 1724q64 -4 121 -20t153 -118t210 14q-120 -42 -171 -15t-131 112t-182 27zM60 1324h414l418 -538h194v538h344v-190h-120v-824h120v-190h-400l-432 537h-176v-537h-362v190h122l-1 824h-121v190z" />
    <glyph glyph-name="ntilde" unicode="&#xf1;" horiz-adv-x="1430" 
d="M60 0v1444h470l430 -540v540h470v-1444h-470l-430 540v-540h-470zM120 1384v-1324h350v540h95l430 -540h375v1324h-350v-538h-95l-420 538h-385zM1064 1628q-240 -232 -408 -50t-253 15l-60 47q147 270 322 79t323 -51zM456 1724q64 -4 121 -20t153 -118t210 14
q-120 -42 -171 -15t-131 112t-182 27zM180 1320h294l418 -534h194v532h225v-1200h-282l-431 539h-176l-2 -537h-240v1200z" />
    <glyph glyph-name="Ograve" unicode="&#xd2;" horiz-adv-x="1677" 
d="M1668 714q0 -237 -99 -404t-286.5 -251t-447.5 -84t-446.5 84.5t-282.5 250t-96 404.5q0 181 55 318.5t161 231.5t260 142.5t349 48.5q259 0 447 -85.5t287 -252t99 -403.5zM203 1796h462l176 -318zM1608 714q-4 218 -95.5 371t-265 232t-412.5 79q-180 0 -322 -45
t-240 -131t-148.5 -212.5t-54.5 -292.5q4 -220 92.5 -372t260.5 -230t412 -78t413 77.5t264.5 231t95.5 370.5zM408 1742l320 -150l-98 150h-222zM486 712q0 380 340 380q216 0 283 -113.5t75 -266.5q-8 -107 -27 -183.5t-96.5 -136t-234.5 -59.5q-202 0 -271 113.5
t-69 265.5zM551 709q0 -127 56 -221.5t223 -94.5q128 0 192 50t80 113t21 153q-5 127 -60.5 221t-232.5 94q-279 0 -279 -315zM1547 714q-3 -197 -87 -335.5t-242.5 -209t-378.5 -70.5t-378 71t-239 208t-84 336q3 150 49.5 264.5t136 192t220 118t295.5 40.5
q219 0 378 -71.5t243 -209.5t87 -334zM426 708q0 -175 81 -307t319 -132q186 0 278 69.5t114.5 158t32.5 211.5q-10 178 -89.5 309.5t-335.5 131.5q-400 0 -400 -441zM512 1720l153 -70l-47 70h-106z" />
    <glyph glyph-name="ograve" unicode="&#xf2;" horiz-adv-x="1677" 
d="M1668 714q0 -237 -99 -404t-286.5 -251t-447.5 -84t-446.5 84.5t-282.5 250t-96 404.5q0 181 55 318.5t161 231.5t260 142.5t349 48.5q259 0 447 -85.5t287 -252t99 -403.5zM203 1796h462l176 -318zM1608 714q-4 218 -95.5 371t-265 232t-412.5 79q-180 0 -322 -45
t-240 -131t-148.5 -212.5t-54.5 -292.5q4 -220 92.5 -372t260.5 -230t412 -78t413 77.5t264.5 231t95.5 370.5zM408 1742l320 -150l-98 150h-222zM486 712q0 380 340 380q216 0 283 -113.5t75 -266.5q-8 -107 -27 -183.5t-96.5 -136t-234.5 -59.5q-202 0 -271 113.5
t-69 265.5zM551 709q0 -127 56 -221.5t223 -94.5q128 0 192 50t80 113t21 153q-5 127 -60.5 221t-232.5 94q-279 0 -279 -315zM1547 714q-3 -197 -87 -335.5t-242.5 -209t-378.5 -70.5t-378 71t-239 208t-84 336q3 150 49.5 264.5t136 192t220 118t295.5 40.5
q219 0 378 -71.5t243 -209.5t87 -334zM426 708q0 -175 81 -307t319 -132q186 0 278 69.5t114.5 158t32.5 211.5q-10 178 -89.5 309.5t-335.5 131.5q-400 0 -400 -441zM512 1720l153 -70l-47 70h-106z" />
    <glyph glyph-name="Oacute" unicode="&#xd3;" horiz-adv-x="1677" 
d="M1668 714q0 -237 -99 -404t-286.5 -251t-447.5 -84t-446.5 84.5t-282.5 250t-96 404.5q0 181 55 318.5t161 231.5t260 142.5t349 48.5q259 0 447 -85.5t287 -252t99 -403.5zM673 1478l176 318h462zM1608 714q-4 218 -95.5 371t-265 232t-412.5 79q-180 0 -322 -45
t-240 -131t-148.5 -212.5t-54.5 -292.5q4 -220 92.5 -372t260.5 -230t412 -78t413 77.5t264.5 231t95.5 370.5zM886 1742l-94 -150l310 150h-216zM486 712q0 380 340 380q216 0 283 -113.5t75 -266.5q-8 -107 -27 -183.5t-96.5 -136t-234.5 -59.5q-202 0 -271 113.5
t-69 265.5zM551 709q0 -127 56 -221.5t223 -94.5q128 0 192 50t80 113t21 153q-5 127 -60.5 221t-232.5 94q-279 0 -279 -315zM1547 714q-3 -197 -87 -335.5t-242.5 -209t-378.5 -70.5t-378 71t-239 208t-84 336q3 150 49.5 264.5t136 192t220 118t295.5 40.5
q219 0 378 -71.5t243 -209.5t87 -334zM426 708q0 -175 81 -307t319 -132q186 0 278 69.5t114.5 158t32.5 211.5q-10 178 -89.5 309.5t-335.5 131.5q-400 0 -400 -441zM1010 1720l-153 -70l47 70h106z" />
    <glyph glyph-name="oacute" unicode="&#xf3;" horiz-adv-x="1677" 
d="M1668 714q0 -237 -99 -404t-286.5 -251t-447.5 -84t-446.5 84.5t-282.5 250t-96 404.5q0 181 55 318.5t161 231.5t260 142.5t349 48.5q259 0 447 -85.5t287 -252t99 -403.5zM673 1478l176 318h462zM1608 714q-4 218 -95.5 371t-265 232t-412.5 79q-180 0 -322 -45
t-240 -131t-148.5 -212.5t-54.5 -292.5q4 -220 92.5 -372t260.5 -230t412 -78t413 77.5t264.5 231t95.5 370.5zM886 1742l-94 -150l310 150h-216zM486 712q0 380 340 380q216 0 283 -113.5t75 -266.5q-8 -107 -27 -183.5t-96.5 -136t-234.5 -59.5q-202 0 -271 113.5
t-69 265.5zM551 709q0 -127 56 -221.5t223 -94.5q128 0 192 50t80 113t21 153q-5 127 -60.5 221t-232.5 94q-279 0 -279 -315zM1547 714q-3 -197 -87 -335.5t-242.5 -209t-378.5 -70.5t-378 71t-239 208t-84 336q3 150 49.5 264.5t136 192t220 118t295.5 40.5
q219 0 378 -71.5t243 -209.5t87 -334zM426 708q0 -175 81 -307t319 -132q186 0 278 69.5t114.5 158t32.5 211.5q-10 178 -89.5 309.5t-335.5 131.5q-400 0 -400 -441zM1010 1720l-153 -70l47 70h106z" />
    <glyph glyph-name="Ocircumflex" unicode="&#xd4;" horiz-adv-x="1677" 
d="M1668 714q0 -237 -99 -404t-286.5 -251t-447.5 -84t-446.5 84.5t-282.5 250t-96 404.5q0 181 55 318.5t161 231.5t260 142.5t349 48.5q259 0 447 -85.5t287 -252t99 -403.5zM1114 1472l-287 185l-290 -181v62l287 300l290 -300v-66zM1608 714q-4 218 -95.5 371t-265 232
t-412.5 79q-180 0 -322 -45t-240 -131t-148.5 -212.5t-54.5 -292.5q4 -220 92.5 -372t260.5 -230t412 -78t413 77.5t264.5 231t95.5 370.5zM824 1713l196 -127l-196 183l-190 -193zM486 712q0 380 340 380q216 0 283 -113.5t75 -266.5q-8 -107 -27 -183.5t-96.5 -136
t-234.5 -59.5q-202 0 -271 113.5t-69 265.5zM551 709q0 -127 56 -221.5t223 -94.5q128 0 192 50t80 113t21 153q-5 127 -60.5 221t-232.5 94q-279 0 -279 -315zM1547 714q-3 -197 -87 -335.5t-242.5 -209t-378.5 -70.5t-378 71t-239 208t-84 336q3 150 49.5 264.5t136 192
t220 118t295.5 40.5q219 0 378 -71.5t243 -209.5t87 -334zM426 708q0 -175 81 -307t319 -132q186 0 278 69.5t114.5 158t32.5 211.5q-10 178 -89.5 309.5t-335.5 131.5q-400 0 -400 -441z" />
    <glyph glyph-name="ocircumflex" unicode="&#xf4;" horiz-adv-x="1677" 
d="M1668 714q0 -237 -99 -404t-286.5 -251t-447.5 -84t-446.5 84.5t-282.5 250t-96 404.5q0 181 55 318.5t161 231.5t260 142.5t349 48.5q259 0 447 -85.5t287 -252t99 -403.5zM1114 1472l-287 185l-290 -181v62l287 300l290 -300v-66zM1608 714q-4 218 -95.5 371t-265 232
t-412.5 79q-180 0 -322 -45t-240 -131t-148.5 -212.5t-54.5 -292.5q4 -220 92.5 -372t260.5 -230t412 -78t413 77.5t264.5 231t95.5 370.5zM824 1713l196 -127l-196 183l-190 -193zM486 712q0 380 340 380q216 0 283 -113.5t75 -266.5q-8 -107 -27 -183.5t-96.5 -136
t-234.5 -59.5q-202 0 -271 113.5t-69 265.5zM551 709q0 -127 56 -221.5t223 -94.5q128 0 192 50t80 113t21 153q-5 127 -60.5 221t-232.5 94q-279 0 -279 -315zM1547 714q-3 -197 -87 -335.5t-242.5 -209t-378.5 -70.5t-378 71t-239 208t-84 336q3 150 49.5 264.5t136 192
t220 118t295.5 40.5q219 0 378 -71.5t243 -209.5t87 -334zM426 708q0 -175 81 -307t319 -132q186 0 278 69.5t114.5 158t32.5 211.5q-10 178 -89.5 309.5t-335.5 131.5q-400 0 -400 -441z" />
    <glyph glyph-name="Otilde" unicode="&#xd5;" horiz-adv-x="1677" 
d="M1668 714q0 -237 -99 -404t-286.5 -251t-447.5 -84t-446.5 84.5t-282.5 250t-96 404.5q0 181 55 318.5t161 231.5t260 142.5t349 48.5q259 0 447 -85.5t287 -252t99 -403.5zM1608 714q-4 218 -95.5 371t-265 232t-412.5 79q-180 0 -322 -45t-240 -131t-148.5 -212.5
t-54.5 -292.5q4 -220 92.5 -372t260.5 -230t412 -78t413 77.5t264.5 231t95.5 370.5zM1196 1628q-240 -232 -408 -50t-253 15l-60 47q147 270 322 79t323 -51zM592 1720q64 -4 121 -20t153 -118t210 14q-120 -42 -171 -15t-131 112t-182 27zM486 712q0 380 340 380
q216 0 283 -113.5t75 -266.5q-8 -107 -27 -183.5t-96.5 -136t-234.5 -59.5q-202 0 -271 113.5t-69 265.5zM551 709q0 -127 56 -221.5t223 -94.5q128 0 192 50t80 113t21 153q-5 127 -60.5 221t-232.5 94q-279 0 -279 -315zM1547 714q-3 -197 -87 -335.5t-242.5 -209
t-378.5 -70.5t-378 71t-239 208t-84 336q3 150 49.5 264.5t136 192t220 118t295.5 40.5q219 0 378 -71.5t243 -209.5t87 -334zM426 708q0 -175 81 -307t319 -132q186 0 278 69.5t114.5 158t32.5 211.5q-10 178 -89.5 309.5t-335.5 131.5q-400 0 -400 -441z" />
    <glyph glyph-name="otilde" unicode="&#xf5;" horiz-adv-x="1677" 
d="M1668 714q0 -237 -99 -404t-286.5 -251t-447.5 -84t-446.5 84.5t-282.5 250t-96 404.5q0 181 55 318.5t161 231.5t260 142.5t349 48.5q259 0 447 -85.5t287 -252t99 -403.5zM1608 714q-4 218 -95.5 371t-265 232t-412.5 79q-180 0 -322 -45t-240 -131t-148.5 -212.5
t-54.5 -292.5q4 -220 92.5 -372t260.5 -230t412 -78t413 77.5t264.5 231t95.5 370.5zM1196 1628q-240 -232 -408 -50t-253 15l-60 47q147 270 322 79t323 -51zM592 1720q64 -4 121 -20t153 -118t210 14q-120 -42 -171 -15t-131 112t-182 27zM486 712q0 380 340 380
q216 0 283 -113.5t75 -266.5q-8 -107 -27 -183.5t-96.5 -136t-234.5 -59.5q-202 0 -271 113.5t-69 265.5zM551 709q0 -127 56 -221.5t223 -94.5q128 0 192 50t80 113t21 153q-5 127 -60.5 221t-232.5 94q-279 0 -279 -315zM1547 714q-3 -197 -87 -335.5t-242.5 -209
t-378.5 -70.5t-378 71t-239 208t-84 336q3 150 49.5 264.5t136 192t220 118t295.5 40.5q219 0 378 -71.5t243 -209.5t87 -334zM426 708q0 -175 81 -307t319 -132q186 0 278 69.5t114.5 158t32.5 211.5q-10 178 -89.5 309.5t-335.5 131.5q-400 0 -400 -441z" />
    <glyph glyph-name="Odieresis" unicode="&#xd6;" horiz-adv-x="1677" 
d="M1668 714q0 -237 -99 -404t-286.5 -251t-447.5 -84t-446.5 84.5t-282.5 250t-96 404.5q0 181 55 318.5t161 231.5t260 142.5t349 48.5q259 0 447 -85.5t287 -252t99 -403.5zM1123 1764q51 0 83.5 -33.5t32.5 -83.5q-5 -61 -38.5 -92t-83.5 -31q-48 0 -81 33t-33 83
q0 56 33 90t87 34zM563 1764q51 0 83.5 -33.5t32.5 -83.5q-5 -61 -38.5 -92t-83.5 -31q-48 0 -81 33t-33 83q0 56 33 90t87 34zM1608 714q-4 218 -95.5 371t-265 232t-412.5 79q-180 0 -322 -45t-240 -131t-148.5 -212.5t-54.5 -292.5q4 -220 92.5 -372t260.5 -230t412 -78
t413 77.5t264.5 231t95.5 370.5zM1123 1706q-31 0 -49.5 -18.5t-18.5 -50.5q0 -28 18.5 -46.5t45.5 -18.5q29 0 48 17.5t22 51.5q0 28 -18.5 46.5t-47.5 18.5zM563 1710q-31 0 -49.5 -18.5t-18.5 -50.5q0 -28 18.5 -46.5t45.5 -18.5q29 0 48 17.5t22 51.5q0 28 -18.5 46.5
t-47.5 18.5zM486 712q0 380 340 380q216 0 283 -113.5t75 -266.5q-8 -107 -27 -183.5t-96.5 -136t-234.5 -59.5q-202 0 -271 113.5t-69 265.5zM551 709q0 -127 56 -221.5t223 -94.5q128 0 192 50t80 113t21 153q-5 127 -60.5 221t-232.5 94q-279 0 -279 -315zM1547 714
q-3 -197 -87 -335.5t-242.5 -209t-378.5 -70.5t-378 71t-239 208t-84 336q3 150 49.5 264.5t136 192t220 118t295.5 40.5q219 0 378 -71.5t243 -209.5t87 -334zM426 708q0 -175 81 -307t319 -132q186 0 278 69.5t114.5 158t32.5 211.5q-10 178 -89.5 309.5t-335.5 131.5
q-400 0 -400 -441zM564 1680q17 0 28 -10.5t11 -26.5q-2 -20 -13 -30.5t-28 -10.5q-16 0 -26.5 11t-10.5 27q0 19 10.5 29.5t28.5 10.5zM1122 1676q17 0 28 -10.5t11 -26.5q-2 -20 -13 -30.5t-28 -10.5q-16 0 -26.5 11t-10.5 27q0 19 10.5 29.5t28.5 10.5z" />
    <glyph glyph-name="odieresis" unicode="&#xf6;" horiz-adv-x="1677" 
d="M1668 714q0 -237 -99 -404t-286.5 -251t-447.5 -84t-446.5 84.5t-282.5 250t-96 404.5q0 181 55 318.5t161 231.5t260 142.5t349 48.5q259 0 447 -85.5t287 -252t99 -403.5zM1123 1764q51 0 83.5 -33.5t32.5 -83.5q-5 -61 -38.5 -92t-83.5 -31q-48 0 -81 33t-33 83
q0 56 33 90t87 34zM563 1764q51 0 83.5 -33.5t32.5 -83.5q-5 -61 -38.5 -92t-83.5 -31q-48 0 -81 33t-33 83q0 56 33 90t87 34zM1608 714q-4 218 -95.5 371t-265 232t-412.5 79q-180 0 -322 -45t-240 -131t-148.5 -212.5t-54.5 -292.5q4 -220 92.5 -372t260.5 -230t412 -78
t413 77.5t264.5 231t95.5 370.5zM1123 1706q-31 0 -49.5 -18.5t-18.5 -50.5q0 -28 18.5 -46.5t45.5 -18.5q29 0 48 17.5t22 51.5q0 28 -18.5 46.5t-47.5 18.5zM563 1710q-31 0 -49.5 -18.5t-18.5 -50.5q0 -28 18.5 -46.5t45.5 -18.5q29 0 48 17.5t22 51.5q0 28 -18.5 46.5
t-47.5 18.5zM486 712q0 380 340 380q216 0 283 -113.5t75 -266.5q-8 -107 -27 -183.5t-96.5 -136t-234.5 -59.5q-202 0 -271 113.5t-69 265.5zM551 709q0 -127 56 -221.5t223 -94.5q128 0 192 50t80 113t21 153q-5 127 -60.5 221t-232.5 94q-279 0 -279 -315zM1547 714
q-3 -197 -87 -335.5t-242.5 -209t-378.5 -70.5t-378 71t-239 208t-84 336q3 150 49.5 264.5t136 192t220 118t295.5 40.5q219 0 378 -71.5t243 -209.5t87 -334zM426 708q0 -175 81 -307t319 -132q186 0 278 69.5t114.5 158t32.5 211.5q-10 178 -89.5 309.5t-335.5 131.5
q-400 0 -400 -441zM1122 1676q17 0 28 -10.5t11 -26.5q-2 -20 -13 -30.5t-28 -10.5q-16 0 -26.5 11t-10.5 27q0 19 10.5 29.5t28.5 10.5zM564 1680q17 0 28 -10.5t11 -26.5q-2 -20 -13 -30.5t-28 -10.5q-16 0 -26.5 11t-10.5 27q0 19 10.5 29.5t28.5 10.5z" />
    <glyph glyph-name="Oslash" unicode="&#xd8;" horiz-adv-x="1677" 
d="M566 424q58 -82 260 -90q156 0 234 59t97 136t27 183q-8 140 -30 156zM1446 1274l110 88l112 -150l-88 -78q88 -183 88 -420t-99 -404t-286.5 -251t-447.5 -84t-555 149l-168 -132l-110 148l134 108q-126 227 -126 466q0 181 55 318.5t161 231.5t260 142.5t349 48.5
q259 0 410 -71.5t201 -109.5zM1094 980q-50 112 -268 112q-340 0 -340 -380q4 -154 42 -168zM1606 714q-4 218 -110 418l102 86l-52 72l-104 -86q-23 34 -196.5 113t-412.5 79q-180 0 -322 -45t-240 -131t-148.5 -212.5t-54.5 -292.5q4 -220 134 -481l-122 -98l44 -62
l154 122q315 -161 555 -161t413 77.5t264.5 231t95.5 370.5zM558 642l-6 68q0 314 278 314q174 0 178 -42zM1114 766l6 -56q-2 -92 -18 -155t-80 -112t-192 -49q-144 0 -152 38zM1547 714q-3 -197 -87 -335.5t-242.5 -209t-378.5 -70.5t-378 71t-239 208t-84 336
q3 150 49.5 264.5t136 192t220 118t295.5 40.5q219 0 378 -71.5t243 -209.5t87 -334zM426 708q0 -175 81 -307t319 -132q186 0 278 69.5t114.5 158t32.5 211.5q-10 178 -89.5 309.5t-335.5 131.5q-400 0 -400 -441zM120 132l14 -19l183 147l-10 11l-6 5zM486 444l694 532
l14 -26l-690 -536zM1404 1128l130 108l14 -20l-128 -106z" />
    <glyph glyph-name="oslash" unicode="&#xf8;" horiz-adv-x="1677" 
d="M566 424q58 -82 260 -90q156 0 234 59t97 136t27 183q-8 140 -30 156zM1446 1274l110 88l112 -150l-88 -78q88 -183 88 -420t-99 -404t-286.5 -251t-447.5 -84t-555 149l-168 -132l-110 148l134 108q-126 227 -126 466q0 181 55 318.5t161 231.5t260 142.5t349 48.5
q259 0 410 -71.5t201 -109.5zM1094 980q-50 112 -268 112q-340 0 -340 -380q4 -154 42 -168zM1606 714q-4 218 -110 418l102 86l-52 72l-104 -86q-23 34 -196.5 113t-412.5 79q-180 0 -322 -45t-240 -131t-148.5 -212.5t-54.5 -292.5q4 -220 134 -481l-122 -98l44 -62
l154 122q315 -161 555 -161t413 77.5t264.5 231t95.5 370.5zM558 642l-6 68q0 314 278 314q174 0 178 -42zM1114 766l6 -56q-2 -92 -18 -155t-80 -112t-192 -49q-144 0 -152 38zM1547 714q-3 -197 -87 -335.5t-242.5 -209t-378.5 -70.5t-378 71t-239 208t-84 336
q3 150 49.5 264.5t136 192t220 118t295.5 40.5q219 0 378 -71.5t243 -209.5t87 -334zM426 708q0 -175 81 -307t319 -132q186 0 278 69.5t114.5 158t32.5 211.5q-10 178 -89.5 309.5t-335.5 131.5q-400 0 -400 -441zM120 132l14 -19l183 147l-10 11l-6 5zM486 444l694 532
l14 -26l-690 -536zM1404 1128l130 108l14 -20l-128 -106z" />
    <glyph glyph-name="Ugrave" unicode="&#xd9;" horiz-adv-x="1494" 
d="M530 1444v-854q-6 -146 56 -203t194 -61q106 2 177 62t67 202v854h470v-60h-410v-794q6 -152 -66 -231t-238 -93q-174 6 -244 84t-66 240v794h-410v60h470zM1434 1074h60v-477q-3 -180 -59.5 -287.5t-143 -179.5t-217 -112t-290.5 -44q-133 3 -270.5 36.5t-240 105.5
t-158 185t-55.5 295v478h60v-478q10 -178 55 -267t136 -157t219 -101t254 -37q150 6 274 45t199 104t124 154t53 260v477zM279 1796h462l176 -318zM476 1742l320 -150l-98 150h-222zM60 1324h357v-732q1 -176 78 -276t283 -102q196 12 279 109t81 269v732h356v-190h-113
v-537q-8 -161 -48.5 -236.5t-105 -130.5t-183 -95.5t-258.5 -46.5q-118 4 -238.5 35t-201.5 95t-118 131.5t-46 246.5v538h-122v190zM578 1720l153 -70l-47 70h-106z" />
    <glyph glyph-name="ugrave" unicode="&#xf9;" horiz-adv-x="1494" 
d="M530 1444v-854q-6 -146 56 -203t194 -61q106 2 177 62t67 202v854h470v-847q-3 -180 -59.5 -287.5t-143 -179.5t-217 -112t-290.5 -44q-133 3 -270.5 36.5t-240 105.5t-158 185t-55.5 295v848h470zM120 1384v-788q10 -178 55 -267t136 -157t219 -101t254 -37
q150 6 274 45t199 104t124 154t53 260v787h-350v-794q6 -152 -66 -231t-238 -93q-174 6 -244 84t-66 240v794h-350zM279 1796h462l176 -318zM476 1742l320 -150l-98 150h-222zM177 1327h240v-735q-9 -178 73 -277t288 -101q196 12 279 109t81 269v732h246v-726
q-11 -162 -51.5 -237.5t-105 -130.5t-183 -95.5t-258.5 -46.5q-118 4 -238.5 35t-201.5 95t-123.5 132t-45.5 246v731zM578 1720l153 -70l-47 70h-106z" />
    <glyph glyph-name="Uacute" unicode="&#xda;" horiz-adv-x="1494" 
d="M530 1444v-854q-6 -146 56 -203t194 -61q106 2 177 62t67 202v854h470v-60h-410v-794q6 -152 -66 -231t-238 -93q-174 6 -244 84t-66 240v794h-410v60h470zM1434 1074h60v-477q-3 -180 -59.5 -287.5t-143 -179.5t-217 -112t-290.5 -44q-133 3 -270.5 36.5t-240 105.5
t-158 185t-55.5 295v478h60v-478q10 -178 55 -267t136 -157t219 -101t254 -37q150 6 274 45t199 104t124 154t53 260v477zM709 1478l176 318h462zM930 1742l-94 -150l310 150h-216zM60 1324h357v-732q1 -176 78 -276t283 -102q196 12 279 109t81 269v732h356v-190h-113v-537
q-8 -161 -48.5 -236.5t-105 -130.5t-183 -95.5t-258.5 -46.5q-118 4 -238.5 35t-201.5 95t-118 131.5t-46 246.5v538h-122v190zM1058 1722l-153 -70l47 70h106z" />
    <glyph glyph-name="uacute" unicode="&#xfa;" horiz-adv-x="1494" 
d="M530 1444v-854q-6 -146 56 -203t194 -61q106 2 177 62t67 202v854h470v-847q-3 -180 -59.5 -287.5t-143 -179.5t-217 -112t-290.5 -44q-133 3 -270.5 36.5t-240 105.5t-158 185t-55.5 295v848h470zM120 1384v-788q10 -178 55 -267t136 -157t219 -101t254 -37
q150 6 274 45t199 104t124 154t53 260v787h-350v-794q6 -152 -66 -231t-238 -93q-174 6 -244 84t-66 240v794h-350zM709 1478l176 318h462zM930 1742l-94 -150l310 150h-216zM177 1327h240v-735q-9 -178 73 -277t288 -101q196 12 279 109t81 269v732h246v-726
q-11 -162 -51.5 -237.5t-105 -130.5t-183 -95.5t-258.5 -46.5q-118 4 -238.5 35t-201.5 95t-123.5 132t-45.5 246v731zM1058 1722l-153 -70l47 70h106z" />
    <glyph glyph-name="Ucircumflex" unicode="&#xdb;" horiz-adv-x="1494" 
d="M530 1444v-854q-6 -146 56 -203t194 -61q106 2 177 62t67 202v854h470v-60h-410v-794q6 -152 -66 -231t-238 -93q-174 6 -244 84t-66 240v794h-410v60h470zM1434 1074h60v-477q-3 -180 -59.5 -287.5t-143 -179.5t-217 -112t-290.5 -44q-133 3 -270.5 36.5t-240 105.5
t-158 185t-55.5 295v478h60v-478q10 -178 55 -267t136 -157t219 -101t254 -37q150 6 274 45t199 104t124 154t53 260v477zM1066 1472l-287 185l-290 -181v62l287 300l290 -300v-66zM776 1713l196 -127l-196 183l-190 -193zM60 1324h357v-732q1 -176 78 -276t283 -102
q196 12 279 109t81 269v732h356v-190h-113v-537q-8 -161 -48.5 -236.5t-105 -130.5t-183 -95.5t-258.5 -46.5q-118 4 -238.5 35t-201.5 95t-118 131.5t-46 246.5v538h-122v190z" />
    <glyph glyph-name="ucircumflex" unicode="&#xfb;" horiz-adv-x="1494" 
d="M530 1444v-854q-6 -146 56 -203t194 -61q106 2 177 62t67 202v854h470v-847q-3 -180 -59.5 -287.5t-143 -179.5t-217 -112t-290.5 -44q-133 3 -270.5 36.5t-240 105.5t-158 185t-55.5 295v848h470zM120 1384v-788q10 -178 55 -267t136 -157t219 -101t254 -37
q150 6 274 45t199 104t124 154t53 260v787h-350v-794q6 -152 -66 -231t-238 -93q-174 6 -244 84t-66 240v794h-350zM1066 1472l-287 185l-290 -181v62l287 300l290 -300v-66zM776 1713l196 -127l-196 183l-190 -193zM177 1327h240v-735q-9 -178 73 -277t288 -101
q196 12 279 109t81 269v732h246v-726q-11 -162 -51.5 -237.5t-105 -130.5t-183 -95.5t-258.5 -46.5q-118 4 -238.5 35t-201.5 95t-123.5 132t-45.5 246v731z" />
    <glyph glyph-name="Udieresis" unicode="&#xdc;" horiz-adv-x="1494" 
d="M530 1444v-854q-6 -146 56 -203t194 -61q106 2 177 62t67 202v854h470v-60h-410v-794q6 -152 -66 -231t-238 -93q-174 6 -244 84t-66 240v794h-410v60h470zM1434 1074h60v-477q-3 -180 -59.5 -287.5t-143 -179.5t-217 -112t-290.5 -44q-133 3 -270.5 36.5t-240 105.5
t-158 185t-55.5 295v478h60v-478q10 -178 55 -267t136 -157t219 -101t254 -37q150 6 274 45t199 104t124 154t53 260v477zM547 1764q51 0 83.5 -33.5t32.5 -83.5q-5 -61 -38.5 -92t-83.5 -31q-48 0 -81 33t-33 83q0 56 33 90t87 34zM547 1706q-31 0 -49.5 -18.5t-18.5 -50.5
q0 -28 18.5 -46.5t45.5 -18.5q29 0 48 17.5t22 51.5q0 28 -18.5 46.5t-47.5 18.5zM1023 1760q51 0 83.5 -33.5t32.5 -83.5q-5 -61 -38.5 -92t-83.5 -31q-48 0 -81 33t-33 83q0 56 33 90t87 34zM1023 1702q-31 0 -49.5 -18.5t-18.5 -50.5q0 -28 18.5 -46.5t45.5 -18.5
q29 0 48 17.5t22 51.5q0 28 -18.5 46.5t-47.5 18.5zM60 1324h357v-732q1 -176 78 -276t283 -102q196 12 279 109t81 269v732h356v-190h-113v-537q-8 -161 -48.5 -236.5t-105 -130.5t-183 -95.5t-258.5 -46.5q-118 4 -238.5 35t-201.5 95t-118 131.5t-46 246.5v538h-122v190z
M548 1678q17 0 28 -10.5t11 -26.5q-2 -20 -13 -30.5t-28 -10.5q-16 0 -26.5 11t-10.5 27q0 19 10.5 29.5t28.5 10.5zM1024 1672q17 0 28 -10.5t11 -26.5q-2 -20 -13 -30.5t-28 -10.5q-16 0 -26.5 11t-10.5 27q0 19 10.5 29.5t28.5 10.5z" />
    <glyph glyph-name="udieresis" unicode="&#xfc;" horiz-adv-x="1494" 
d="M530 1444v-854q-6 -146 56 -203t194 -61q106 2 177 62t67 202v854h470v-847q-3 -180 -59.5 -287.5t-143 -179.5t-217 -112t-290.5 -44q-133 3 -270.5 36.5t-240 105.5t-158 185t-55.5 295v848h470zM120 1384v-788q10 -178 55 -267t136 -157t219 -101t254 -37
q150 6 274 45t199 104t124 154t53 260v787h-350v-794q6 -152 -66 -231t-238 -93q-174 6 -244 84t-66 240v794h-350zM547 1764q51 0 83.5 -33.5t32.5 -83.5q-5 -61 -38.5 -92t-83.5 -31q-48 0 -81 33t-33 83q0 56 33 90t87 34zM1023 1760q51 0 83.5 -33.5t32.5 -83.5
q-5 -61 -38.5 -92t-83.5 -31q-48 0 -81 33t-33 83q0 56 33 90t87 34zM547 1706q-31 0 -49.5 -18.5t-18.5 -50.5q0 -28 18.5 -46.5t45.5 -18.5q29 0 48 17.5t22 51.5q0 28 -18.5 46.5t-47.5 18.5zM1023 1702q-31 0 -49.5 -18.5t-18.5 -50.5q0 -28 18.5 -46.5t45.5 -18.5
q29 0 48 17.5t22 51.5q0 28 -18.5 46.5t-47.5 18.5zM177 1327h240v-735q-9 -178 73 -277t288 -101q196 12 279 109t81 269v732h246v-726q-11 -162 -51.5 -237.5t-105 -130.5t-183 -95.5t-258.5 -46.5q-118 4 -238.5 35t-201.5 95t-123.5 132t-45.5 246v731zM548 1678
q17 0 28 -10.5t11 -26.5q-2 -20 -13 -30.5t-28 -10.5q-16 0 -26.5 11t-10.5 27q0 19 10.5 29.5t28.5 10.5zM1024 1672q17 0 28 -10.5t11 -26.5q-2 -20 -13 -30.5t-28 -10.5q-16 0 -26.5 11t-10.5 27q0 19 10.5 29.5t28.5 10.5z" />
    <glyph glyph-name="Yacute" unicode="&#xdd;" horiz-adv-x="1264" 
d="M60 1384v60h306l294 -446l298 446h306v-60h-266l-303 -446h-65l-296 446h-274zM1264 1074v-60h-26l-340 -484v-530h-472v530l-340 484h-26v60h60l368 -526v-488h352v488l364 526h60zM597 1478l176 318h462zM814 1742l-94 -150l310 150h-216zM60 1324h242l304 -444h120
l302 444h236v-190h-82l-396 -570v-448h-226v444l-401 574h-99v190zM938 1718l-153 -70l47 70h106z" />
    <glyph glyph-name="yacute" unicode="&#xfd;" horiz-adv-x="1614" 
d="M1732 1444l-630 -914v-530h-472v530l-630 914h570l294 -446l298 446h570zM116 1384l576 -836v-488h352v488l578 836h-420l-303 -446h-65l-296 446h-422zM793 1478l176 318h462zM1006 1742l-94 -150l310 150h-216zM226 1330h276l304 -442h120l302 444h286l-528 -760v-448
h-226v444zM1132 1722l-153 -70l47 70h106z" />
    <glyph glyph-name="Thorn" unicode="&#xde;" horiz-adv-x="1394" 
d="M530 272v-272h-470v60h410v272h302q160 -2 259 25t160 71t96 115t45 187q-10 122 -45 193t-98 115t-167 71t-552 19v256h-410v60h470v-253q400 1 509 -27t184 -79t121.5 -135.5t46.5 -220.5q-8 -126 -53 -214t-119 -139t-181 -79t-268 -26zM120 1074v-704h-60v704h60z
M60 1324h353v-239h56q435 3 531 -23t150 -64t88.5 -96t40.5 -174q-7 -108 -34.5 -165t-78 -96t-144 -63t-250.5 -24h-304h-52v-260h-356v190h122v824h-122v190zM745 474q84 0 162 23.5t126.5 68t57.5 152.5q6 100 -53.5 153.5t-127 72t-170.5 18.5h-328v-488h333zM745 522
h-280v388h276q87 0 144 -15t106.5 -58t45.5 -121q-8 -87 -49 -122t-106.5 -53.5t-136.5 -18.5zM518 849v-259l223 -1q76 0 123 14.5t76.5 36.5t38.5 79q-3 53 -33.5 77.5t-79.5 38.5t-127 14h-221z" />
    <glyph glyph-name="thorn" unicode="&#xfe;" horiz-adv-x="1394" 
d="M530 272v-272h-470v1444h470v-253q400 1 509 -27t184 -79t121.5 -135.5t46.5 -220.5q-8 -126 -53 -214t-119 -139t-181 -79t-268 -26zM120 1384v-1324h350v272h302q160 -2 259 25t160 71t96 115t45 187q-10 122 -45 193t-98 115t-167 71t-552 19v256h-350zM745 474
q84 0 162 23.5t126.5 68t57.5 152.5q6 100 -53.5 153.5t-127 72t-170.5 18.5h-328v-488h333zM518 849v-259l223 -1q76 0 123 14.5t76.5 36.5t38.5 79q-3 53 -33.5 77.5t-79.5 38.5t-127 14h-221zM180 1324h233l-1 -248h56q436 0 534 -24t150 -58t86.5 -92t40.5 -174
q-7 -108 -34.5 -165t-78 -96t-144 -63t-250.5 -24h-304h-52v-260h-236v1204zM745 522h-280v388h276q87 0 144 -15t106.5 -58t45.5 -121q-8 -87 -49 -122t-106.5 -53.5t-136.5 -18.5z" />
    <glyph glyph-name="germandbls" unicode="&#xdf;" horiz-adv-x="1628" 
d="M558 559v-855h-498v1740h985q237 -2 360.5 -82t149.5 -268q9 -144 -61 -226t-231 -135v-4q79 -10 146 -42.5t112.5 -77t70.5 -100.5t25 -110q0 -171 -87.5 -259t-225 -115t-333.5 -25h-287v292h195q83 -3 145 36t64 97q4 62 -52.5 98t-156.5 36l-235 1v316l264 -1
q29 0 61 30.5t34 81.5q-4 59 -38.5 83t-57.5 24h-349v-535zM120 -236h378l-1 1390h411q32 0 88.5 -41t66.5 -126q-3 -73 -56 -126t-99 -46l-204 1v-196l175 -1q118 4 196.5 -51t72.5 -143q-10 -87 -89.5 -140.5t-180.5 -52.5h-132v-172h225q193 -4 323.5 22t198.5 104.5
t64 212.5q0 53 -23 98t-59 80t-93 63.5t-190 79.5v24q172 66 242.5 139t60.5 211q-22 158 -129 222.5t-321 67.5h-925v-1620zM180 -172v1496h864q184 -8 274 -56t118 -172q0 -120 -42 -176t-270 -160v-48q184 -72 228 -104t84 -74t68 -134q4 -120 -50 -180t-168 -82
t-322 -26h-176v72h88q128 0 222 58t102 186q-12 116 -92 176t-216 60h-132v104h144q84 4 144 64t60 160q-4 100 -64 154t-136 62h-460v-1380h-268z" />
    <glyph glyph-name="ydieresis" unicode="&#xff;" horiz-adv-x="1614" 
d="M1732 1444l-630 -914v-530h-472v530l-630 914h570l294 -446l298 446h570zM116 1384l576 -836v-488h352v488l578 836h-420l-303 -446h-65l-296 446h-422zM651 1764q51 0 83.5 -33.5t32.5 -83.5q-5 -61 -38.5 -92t-83.5 -31q-48 0 -81 33t-33 83q0 56 33 90t87 34z
M651 1706q-31 0 -49.5 -18.5t-18.5 -50.5q0 -28 18.5 -46.5t45.5 -18.5q29 0 48 17.5t22 51.5q0 28 -18.5 46.5t-47.5 18.5zM1115 1768q51 0 83.5 -33.5t32.5 -83.5q-5 -61 -38.5 -92t-83.5 -31q-48 0 -81 33t-33 83q0 56 33 90t87 34zM1115 1710q-31 0 -49.5 -18.5
t-18.5 -50.5q0 -28 18.5 -46.5t45.5 -18.5q29 0 48 17.5t22 51.5q0 28 -18.5 46.5t-47.5 18.5zM226 1330h276l304 -442h120l302 444h286l-528 -760v-448h-226v444zM1116 1682q17 0 28 -10.5t11 -26.5q-2 -20 -13 -30.5t-28 -10.5q-16 0 -26.5 11t-10.5 27q0 19 10.5 29.5
t28.5 10.5zM652 1678q17 0 28 -10.5t11 -26.5q-2 -20 -13 -30.5t-28 -10.5q-16 0 -26.5 11t-10.5 27q0 19 10.5 29.5t28.5 10.5z" />
    <glyph glyph-name="OE" unicode="&#x152;" horiz-adv-x="2062" 
d="M832 1384q-184 -2 -322 -44t-228 -131t-148.5 -205.5t-49.5 -287.5q0 -224 82 -357t255 -218t335 -81h1306v-60h-1306q-176 -8 -360 86t-280 244t-92 386q-8 180 52 310t164 224t252 142t340 52h1168v-430h-768v-166h496v-252h-496v-166h830v-60h-890v284h496v134h-496
v286h768v310h-1108zM486 712q0 380 402 384v-766q-264 3 -333 116.5t-69 265.5zM551 709q0 -127 56 -221.5t223 -94.5v631q-279 0 -279 -315zM1048 120h-130q-290 -2 -453 71t-238 191t-83 332q-3 150 43.5 257t129.5 193t219 122t308 38h1034v-190h-758v-386h484v-54h-486
v-384h944v-190h-1014zM426 708q0 -175 81 -307t319 -132l112 1v880h-82q-430 -1 -430 -442z" />
    <glyph glyph-name="oe" unicode="&#x153;" horiz-adv-x="2062" 
d="M832 1384q-184 -2 -322 -44t-228 -131t-148.5 -205.5t-49.5 -287.5q0 -224 82 -357t255 -218t335 -81h1246v310h-830v284h496v134h-496v286h768v310h-1108zM486 712q0 380 402 384v-766q-264 3 -333 116.5t-69 265.5zM551 709q0 -127 56 -221.5t223 -94.5v631
q-279 0 -279 -315zM2062 430v-430h-1306q-176 -8 -360 86t-280 244t-92 386q-8 180 52 310t164 224t252 142t340 52h1168v-430h-768v-166h496v-252h-496v-166h830zM1048 120h-130q-290 -2 -453 71t-238 191t-83 332q-3 150 43.5 257t129.5 193t219 122t308 38h1034v-190
h-758v-386h484v-54h-486v-384h819v-190h-889zM426 708q0 -175 81 -307t319 -132l112 1v880h-82q-430 -1 -430 -442z" />
    <glyph glyph-name="Scaron" unicode="&#x160;" horiz-adv-x="1135" 
d="M1135 1444v-60h-727q-208 -4 -262 -222t286 -534q252 -248 -128 -258h-244v60h244q283 -8 72 158q-348 320 -296 588t328 268h727zM1135 1014h-291q-257 8 -76 -142q324 -284 318 -552t-318 -320h-708v60h708q264 56 256 288t-352 524q-160 208 172 202h291v-60z
M922 1824l-290 -366l-287 366v76l290 -221l287 225v-80zM436 1776l196 -243l192 231l-192 -166zM60 310h245q469 30 183 356q-318 320 -278 490t198 168h727v-190h-291q-418 12 -258 -260q364 -304 383 -502t-198 -252h-711v190z" />
    <glyph glyph-name="scaron" unicode="&#x161;" horiz-adv-x="1135" 
d="M1135 1444v-430h-291q-257 8 -76 -142q324 -284 318 -552t-318 -320h-768v430h304q283 -8 72 158q-348 320 -296 588t328 268h727zM922 1824l-290 -366l-287 366v76l290 -221l287 225v-80zM60 370v-310h708q264 56 256 288t-352 524q-160 208 172 202h231v310h-667
q-208 -4 -262 -222t286 -534q252 -248 -128 -258h-244zM436 1776l196 -243l192 231l-192 -166zM128 314h176q470 26 184 352q-318 320 -278 490t200 166h604v-188h-170q-418 12 -258 -260q364 -304 383 -502t-199 -250h-642v192z" />
    <glyph glyph-name="Ydieresis" unicode="&#x178;" horiz-adv-x="1264" 
d="M60 1384v60h306l294 -446l298 446h306v-60h-266l-303 -446h-65l-296 446h-274zM1264 1074v-60h-26l-340 -484v-530h-472v530l-340 484h-26v60h60l368 -526v-488h352v488l364 526h60zM435 1760q51 0 83.5 -33.5t32.5 -83.5q-5 -61 -38.5 -92t-83.5 -31q-48 0 -81 33
t-33 83q0 56 33 90t87 34zM891 1764q51 0 83.5 -33.5t32.5 -83.5q-5 -61 -38.5 -92t-83.5 -31q-48 0 -81 33t-33 83q0 56 33 90t87 34zM892 1678q17 0 28 -10.5t11 -26.5q-2 -20 -13 -30.5t-28 -10.5q-16 0 -26.5 11t-10.5 27q0 19 10.5 29.5t28.5 10.5zM891 1706
q-31 0 -49.5 -18.5t-18.5 -50.5q0 -28 18.5 -46.5t45.5 -18.5q29 0 48 17.5t22 51.5q0 28 -18.5 46.5t-47.5 18.5zM60 1324h242l304 -444h120l302 444h236v-190h-82l-396 -570v-448h-226v444l-401 574h-99v190zM435 1702q-31 0 -49.5 -18.5t-18.5 -50.5q0 -28 18.5 -46.5
t45.5 -18.5q29 0 48 17.5t22 51.5q0 28 -18.5 46.5t-47.5 18.5zM436 1674q17 0 28 -10.5t11 -26.5q-2 -20 -13 -30.5t-28 -10.5q-16 0 -26.5 11t-10.5 27q0 19 10.5 29.5t28.5 10.5z" />
    <glyph glyph-name="Zcaron" unicode="&#x17d;" horiz-adv-x="1380" 
d="M60 1384v60h1320v-430l-699 -584h699v-60h-759v85l699 578v351h-1260zM1380 0h-1320v430l699 584h-699v60h755v-85l-695 -586v-343h1260v-60zM942 1824l-290 -366l-287 366v76l290 -221l287 225v-80zM456 1776l196 -243l192 231l-192 -166zM60 1324h1202v-266l-696 -566
v-182h814v-190h-1204v262l690 584v168h-805z" />
    <glyph glyph-name="zcaron" unicode="&#x17e;" horiz-adv-x="1380" 
d="M60 1444h1320v-430l-699 -584h699v-430h-1320v430l699 584h-699v430zM942 1824l-290 -366l-287 366v76l290 -221l287 225v-80zM456 1776l196 -243l192 231l-192 -166zM120 1384v-310h695v-85l-695 -586v-343h1200v310h-699v85l699 578v351h-1200zM184 1320h1078v-262
l-696 -566v-174h686v-198h-1076v262l690 584v164h-682v190z" />
    <glyph glyph-name="questiondown" unicode="&#xbf;" horiz-adv-x="1176" 
d="M564 826h200q-60 -110 -103 -141t-108 -87t-64 -175q3 -93 91 -137t224 -40q98 4 174 30v-108q-34 -18 -128 -36t-204 -16q-118 2 -217 24t-155 74t-72 114q2 100 31 150t123 128t208 220zM893 1083h-446v385h446v-385zM771 1184h-201v178h201v-178zM465 933h410
q-8 -143 -47 -218.5t-89.5 -113t-94 -71.5t-43.5 -86t52 -68t150 -16q69 0 150.5 20.5t138.5 47.5v-353q-118 -37 -221.5 -56t-224.5 -19q-122 0 -250 28.5t-220 106.5t-92 213q0 104 48.5 172.5t147 148.5t142 132t43.5 132zM516 874q2 -48 -53 -103t-149 -136t-133 -138
t-37 -159q10 -94 83 -161t187 -93t232 -24q114 -2 212 18t174 56v204q-24 -10 -84 -23t-144 -15q-120 -6 -191 26t-73 118q2 84 56 127t98 76t79 90t47 137h-304zM834 1135v277h-331v-277h331z" />
    <glyph glyph-name="paragraph" unicode="&#xb6;" horiz-adv-x="2048" 
d="M499 2515l379 39l20 -64l-167 -119l-106 -10l-70 -738q80 208 191.5 285t260.5 97t303 2.5t234.5 -69.5t136 -166t71.5 -233l20 -40l5 -183l81 -649l-283 -148l5 -25l30 -25q316 79 334 -10l122 -19q69 -80 -1 -114l-1445 -40l-485 -59q-75 54 182 173l313 25l-45 49
l-20 50l40 59l5 25l-141 64l60 644v164q-40 10 -60 69l86 807l-66 30l-25 84zM1302 1482v-173l10 -20l-5 -827l81 -5l5 891h15v124zM918 1492l-35 -99l96 -20l20 114zM764 1400l15 90l-30 2l-20 -92h35zM610 1423h10l8 37l-71 5v-37zM1557 1462l-20 -106l40 2l36 97z
M1618 1361l73 -3l33 45l7 44l-80 15zM544 1395l335 -34l213 -42l-15 -728l-21 191q-22 210 -47 289t-80.5 138.5t-111 88t-116.5 32.5t-144 8zM1432 1315l292 41l10 -72q-66 -20 -101 -35t-60.5 -54.5t-58.5 -121t-63 -324.5l-23 -213zM524 1415l13 -96q63 2 132.5 -1.5
t129 -34.5t113.5 -88t77 -128t78 -528l23 -13l18 810l-230 40zM1416 1334l-3 -870l23 3q53 498 94.5 599.5t69.5 133.5t74.5 49.5t72.5 17.5v104zM1067 459q-37 133 -56.5 208t-45 163t-69.5 175t-137 118q-98 -7 -135 -53t-69.5 -126.5t-68.5 -261.5zM1767 648
q-39 280 -72 373t-71 79q-62 -39 -83.5 -86t-30 -93t-29.5 -189l-15 -164l-10 -96l311 163v13zM555 1514l-11 -15l16 -24l121 17l131 12l179 3l298 -12l195 -20l204 -3l66 -27l-5 67q-83 32 -177 46t-233 23t-276 6t-251 -8t-257 -65zM582 1519q140 37 314 42t262.5 5
t205.5 -5t209.5 -19.5t170.5 -44.5l5 -37l-83 20l-270 19l-197 10l-240 5l-172 -2l-142 -13l-85 -14l-5 12zM954 1933q151 -17 233 -21t165.5 -9t100 4t7.5 26t-43 32t-108.5 22.5t-135 7.5t-110 -7.5t-109.5 -54.5zM1443 1883q16 -69 52.5 -87.5t60.5 -23.5t40.5 13.5
t2.5 43.5t-40.5 43.5t-48 21t-67.5 -10.5zM1493 1888q35 -1 61 -19.5t38.5 -41.5t3.5 -30.5t-22 -3.5t-33 9t-41 24.5t-27.5 36.5t20.5 25zM577 2364l-53 -587l71 587h-18zM340 338q-147 -30 -188.5 -51t-24 -34.5t52 -8.5t71 27t89.5 67zM2077 370q-20 50 -60.5 47.5
t-74.5 -22.5t-96 -28.5t-107 -20t78.5 -2.5t259.5 26zM353 145q28 -140 -56 -168l56 -28q56 224 169 252q280 0 308 -112q56 -225 -140 -309h-168l-141 141q-28 -169 -393 -141l-28 281h-84v140q477 28 477 -56zM101 33h112v56h-112v-56zM101 -136l140 28l-28 57h-112v-85z
M578 -136l112 28l-28 197l-140 -28q-29 -140 56 -197zM858 201q365 28 393 -56q28 -140 -56 -168q84 28 84 -85l112 309h197l112 -337v-84l-281 84l-56 -84l-140 56q-112 -84 -365 -56v421zM998 33h113v56h-113v-56zM998 -136l141 28l-28 57h-113v-85zM1447 -51h85l-29 140
l-56 -56v-84zM224 -287h393v-140l-196 -28h140v-84h-112l-56 -169l-113 28l-56 253v140zM1094 -399q56 -225 -140 -309q-281 0 -309 141q-56 140 140 280q281 0 309 -112zM841 -624l113 28l-28 197l-141 -28q-28 -140 56 -197zM1126 -283q112 56 224 -112q0 112 57 112h448
v-140h-112v-140h253q-197 196 -56 280h280v-112l-140 -56q168 -169 0 -253h-449l-28 253l-112 28l-28 -281h-85l-140 141v-141h-112v421z" />
  </font>
</defs>
</svg>
