<?xml version="1.0" standalone="no"?>
<!DOCTYPE svg PUBLIC "-//W3C//DTD SVG 20010904//EN"
 "http://www.w3.org/TR/2001/REC-SVG-20010904/DTD/svg10.dtd">
<svg version="1.0" xmlns="http://www.w3.org/2000/svg"
 width="512.000000pt" height="512.000000pt" viewBox="0 0 512.000000 512.000000"
 preserveAspectRatio="xMidYMid meet">
<metadata>
Created by potrace 1.11, written by Peter Selinger 2001-2013
</metadata>
<g transform="translate(0.000000,512.000000) scale(0.100000,-0.100000)"
fill="#000000" stroke="none">
<path d="M2021 4882 c-527 -253 -531 -255 -531 -325 0 -37 27 -82 57 -96 55
-25 84 -14 552 209 l461 219 462 -220 c255 -121 475 -223 489 -226 35 -7 93
21 110 53 19 37 16 90 -7 121 -16 21 -148 89 -519 266 -411 196 -505 237 -539
236 -32 0 -149 -52 -535 -237z"/>
<path d="M2276 4530 c-137 -66 -260 -130 -273 -142 -52 -49 -34 -146 33 -174
29 -12 46 -13 76 -6 32 8 38 8 38 -7 1 -9 18 -149 39 -311 22 -162 36 -299 31
-304 -5 -4 -102 -58 -217 -118 -178 -94 -211 -108 -227 -97 -11 6 -128 107
-261 224 l-241 214 4 58 c4 56 2 61 -28 91 -24 24 -40 32 -68 32 -51 0 -476
-199 -514 -241 l-28 -29 0 -284 0 -284 26 -31 c40 -48 106 -53 151 -12 19 18
25 17 344 -114 l324 -133 0 -303 0 -304 -324 -131 c-279 -113 -326 -130 -339
-118 -44 45 -116 41 -157 -8 l-25 -30 0 -284 0 -284 28 -29 c28 -31 481 -251
516 -251 36 0 85 32 101 67 16 33 16 64 0 104 -5 13 54 65 247 221 139 113
263 211 274 218 19 12 40 3 215 -90 107 -56 196 -104 198 -106 2 -2 -13 -145
-34 -318 l-38 -313 -37 9 c-105 27 -183 -99 -109 -178 31 -33 520 -264 558
-264 46 0 529 232 558 268 42 50 21 138 -39 163 -15 6 -45 9 -66 7 l-40 -3
-37 312 c-21 172 -36 315 -34 317 2 2 91 50 198 106 180 96 195 102 216 89 12
-8 139 -108 282 -224 l260 -210 -4 -40 c-8 -77 62 -137 135 -115 74 22 439
204 465 231 l27 29 0 284 0 284 -26 31 c-40 48 -106 53 -150 12 -20 -18 -27
-16 -347 117 l-327 136 2 295 3 294 325 137 c316 133 325 136 344 118 44 -40
110 -35 150 13 l26 31 0 284 0 284 -27 29 c-26 27 -391 209 -465 231 -73 22
-144 -38 -136 -113 l5 -42 -273 -220 c-150 -121 -279 -221 -286 -223 -22 -4
-403 204 -401 219 0 8 18 150 39 316 l37 301 24 -9 c78 -30 153 20 153 101 0
38 -16 71 -43 90 -12 9 -133 69 -268 133 -166 78 -258 117 -280 117 -22 0
-120 -42 -283 -120z m392 -165 c51 -24 92 -47 92 -51 0 -4 -23 -186 -51 -405
-48 -375 -50 -399 -35 -431 19 -40 -6 -25 328 -201 291 -154 319 -164 368
-130 14 10 175 138 359 287 l334 269 99 -49 99 -48 -3 -125 -3 -124 -399 -168
c-220 -92 -409 -177 -420 -189 -21 -20 -21 -30 -24 -435 l-3 -414 28 -31 c22
-24 112 -65 423 -194 l395 -164 3 -124 3 -124 -99 -48 -99 -49 -342 276 c-187
152 -350 281 -362 288 -12 6 -38 9 -58 6 -48 -6 -586 -292 -611 -325 -28 -35
-26 -69 25 -486 25 -201 45 -368 45 -371 0 -9 -182 -95 -200 -95 -18 0 -200
86 -200 95 0 3 20 170 45 371 51 417 53 451 25 486 -25 33 -563 319 -611 325
-20 3 -46 0 -58 -6 -12 -7 -175 -136 -363 -288 l-341 -276 -99 49 -99 48 3
124 3 123 395 160 c306 124 401 167 423 190 l27 29 0 411 c0 441 -1 453 -52
480 -13 7 -196 83 -408 170 l-385 157 -3 124 -3 123 97 48 c84 42 98 46 113
34 9 -7 148 -129 308 -270 161 -142 309 -268 329 -282 20 -14 51 -25 68 -25
21 0 135 55 341 164 272 143 312 167 329 198 l20 35 -48 374 c-26 206 -50 389
-53 406 -5 32 -5 33 88 78 51 25 100 45 109 45 9 0 58 -20 108 -45z"/>
<path d="M1110 4446 c-146 -62 -857 -409 -875 -427 -20 -19 -20 -34 -23 -644
-3 -698 -5 -672 66 -702 50 -21 106 -4 132 40 19 31 20 55 20 597 l0 565 388
184 c213 101 404 194 424 207 51 33 68 86 43 138 -19 39 -59 66 -97 66 -13 -1
-48 -11 -78 -24z"/>
<path d="M3903 4441 c-40 -25 -53 -49 -53 -100 0 -30 7 -46 29 -68 17 -16 188
-103 420 -213 l391 -185 0 -565 c0 -542 1 -566 20 -597 26 -44 82 -61 132 -40
71 30 69 4 66 701 -3 585 -4 625 -21 644 -23 26 -873 431 -918 438 -24 3 -44
-1 -66 -15z"/>
<path d="M273 2445 c-65 -28 -64 -8 -61 -699 3 -586 4 -625 21 -644 26 -29
919 -452 953 -452 78 0 131 80 101 152 -19 46 -20 46 -479 264 l-378 179 0
563 c0 625 2 610 -65 638 -42 17 -51 17 -92 -1z"/>
<path d="M4753 2445 c-64 -28 -63 -15 -63 -637 l0 -563 -391 -185 c-232 -110
-403 -197 -420 -213 -61 -60 -24 -170 63 -184 32 -5 85 18 482 207 244 117
453 221 463 232 17 19 18 58 21 644 3 694 5 671 -63 700 -42 17 -51 17 -92 -1z"/>
<path d="M3490 670 c-14 -4 -229 -105 -478 -223 l-452 -216 -461 219 c-468
223 -497 234 -552 209 -30 -14 -57 -59 -57 -96 0 -71 3 -72 535 -326 374 -178
507 -237 535 -237 54 0 1024 463 1054 503 34 45 22 126 -22 154 -27 16 -74 22
-102 13z"/>
</g>
</svg>
