<?xml version="1.0" standalone="no"?>
<!DOCTYPE svg PUBLIC "-//W3C//DTD SVG 20010904//EN"
 "http://www.w3.org/TR/2001/REC-SVG-20010904/DTD/svg10.dtd">
<svg version="1.0" xmlns="http://www.w3.org/2000/svg"
 width="480.000000pt" height="480.000000pt" viewBox="0 0 480.000000 480.000000"
 preserveAspectRatio="xMidYMid meet">
<metadata>
Created by potrace 1.11, written by Peter Selinger 2001-2013
</metadata>
<g transform="translate(0.000000,480.000000) scale(0.100000,-0.100000)"
fill="#000000" stroke="none">
<path d="M2260 4397 c-3 -3 -36 -7 -75 -10 -38 -4 -97 -11 -130 -17 -676 -124
-1241 -579 -1503 -1211 -57 -137 -102 -290 -118 -397 -3 -20 -7 -43 -9 -50
-29 -86 -26 -476 5 -652 21 -120 35 -176 76 -300 29 -87 27 -81 97 -230 289
-607 901 -1042 1575 -1117 127 -15 479 -7 534 12 7 2 31 7 53 10 125 18 330
84 474 152 412 195 732 504 940 906 32 62 63 126 69 142 5 17 22 62 36 100 29
76 68 224 85 320 35 192 36 492 1 685 -16 95 -20 113 -41 185 -62 215 -148
401 -267 580 -277 416 -693 710 -1180 835 -42 11 -93 22 -112 25 -19 3 -46 7
-60 10 -14 3 -43 7 -65 11 -51 7 -379 16 -385 11z m40 -257 c0 -33 -4 -50 -12
-51 -7 0 -20 -2 -28 -3 -8 -2 -44 -6 -79 -10 -35 -4 -85 -11 -110 -16 -25 -5
-59 -12 -75 -14 -16 -3 -30 -7 -32 -8 -2 -2 12 -60 31 -128 50 -186 54 -167
-46 -199 -171 -55 -338 -156 -503 -303 -18 -16 -23 -12 -133 88 l-114 105 -42
-47 c-23 -26 -63 -74 -90 -108 -26 -33 -58 -73 -70 -89 l-22 -27 -37 32 -38
33 58 78 c295 393 752 658 1212 704 30 3 57 7 59 9 2 2 19 4 38 4 33 0 33 0
33 -50z m350 35 c14 -2 45 -7 69 -10 78 -11 234 -54 326 -90 335 -130 623
-357 825 -650 l30 -44 -42 -26 -43 -25 -20 26 c-39 52 -143 179 -168 207 l-26
27 -111 -110 -110 -111 -46 43 c-119 112 -297 217 -469 278 -49 17 -90 32 -92
34 -1 1 15 67 37 146 39 143 39 157 5 161 -5 0 -17 2 -25 4 -85 20 -170 32
-242 34 l-38 1 0 60 0 60 58 -6 c31 -3 68 -7 82 -9z m-45 -694 c72 -17 77 -21
64 -62 -5 -18 -12 -41 -14 -49 -5 -23 -94 -352 -101 -372 -4 -13 4 -19 38 -29
66 -17 145 -61 205 -112 21 -19 21 -18 197 157 l177 176 44 -50 c53 -60 117
-154 155 -230 34 -68 82 -201 75 -208 -4 -4 -147 -46 -197 -57 -18 -4 -136
-36 -224 -61 l-52 -15 10 -42 c5 -23 8 -95 6 -160 l-4 -118 50 -14 c28 -8 103
-28 166 -45 208 -56 251 -68 256 -73 8 -8 -52 -162 -91 -234 -41 -76 -108
-172 -154 -220 l-31 -32 -176 176 -175 175 -22 -24 c-50 -54 -181 -128 -228
-128 -11 0 -19 -1 -19 -2 0 -2 29 -109 65 -238 35 -129 61 -238 57 -241 -4 -4
-38 -15 -77 -25 -141 -38 -499 -15 -482 30 3 7 30 107 61 222 31 115 59 217
62 226 4 13 -5 20 -38 29 -67 18 -186 85 -217 123 -10 12 -40 -14 -185 -159
l-173 -174 -44 47 c-56 60 -118 150 -156 227 -42 83 -85 207 -76 215 4 3 33
12 63 19 30 7 66 16 80 21 14 4 79 22 145 40 66 17 134 36 150 41 l30 9 0 150
0 151 -35 9 c-209 56 -433 119 -436 123 -6 6 40 136 71 197 38 77 127 208 170
252 l37 38 174 -175 175 -175 22 23 c27 29 125 88 195 117 35 15 51 27 48 36
-9 23 -119 438 -120 453 -1 16 61 40 124 48 25 3 47 8 50 10 9 9 252 -5 305
-16z m1434 -343 c33 -72 67 -162 101 -273 39 -127 59 -316 55 -510 -5 -234
-49 -443 -136 -641 -57 -131 -55 -129 -106 -98 l-43 25 20 38 c24 48 102 273
96 278 -2 3 -68 22 -146 43 -78 21 -144 40 -146 42 -2 3 1 19 6 38 5 18 12 49
15 69 3 20 10 61 15 91 9 56 6 300 -5 355 -23 115 -25 139 -13 147 7 4 69 26
138 48 69 22 131 44 138 48 15 10 -20 124 -78 249 l-38 82 41 25 c23 14 43 25
45 26 2 0 20 -37 41 -82z m-3172 34 l22 -14 -19 -38 c-27 -52 -101 -272 -95
-279 3 -3 69 -26 146 -52 76 -25 141 -48 144 -50 2 -3 -3 -34 -12 -69 -26
-102 -23 -407 4 -528 14 -66 17 -95 9 -97 -6 -2 -71 -22 -144 -43 -73 -22
-135 -42 -137 -44 -6 -6 39 -144 78 -236 l35 -82 -49 -25 -49 -25 -31 67 c-65
141 -124 330 -144 463 -4 25 -10 56 -12 70 -12 65 -10 352 2 440 27 189 82
375 151 513 38 74 35 73 101 29z m219 -1831 c34 -42 73 -88 87 -104 l26 -27
111 110 110 111 32 -31 c54 -52 168 -135 253 -184 80 -46 265 -126 290 -126
24 0 26 -16 10 -89 -8 -39 -17 -85 -20 -103 -4 -18 -11 -53 -16 -77 -7 -33 -7
-46 2 -52 26 -15 211 -46 292 -48 l37 -1 0 -56 0 -55 -62 6 c-126 12 -160 18
-273 45 -410 96 -791 360 -1035 715 l-30 44 42 26 43 25 20 -26 c11 -15 48
-61 81 -103z m2801 76 c30 -21 -194 -284 -342 -402 -27 -22 -52 -43 -55 -46
-18 -22 -189 -126 -283 -172 -207 -102 -411 -160 -639 -182 l-68 -6 0 50 c0
42 3 51 18 52 9 0 24 2 32 3 8 2 45 6 82 10 67 6 196 30 203 38 2 2 -14 69
-35 148 -39 143 -39 159 -5 160 19 0 169 61 240 97 111 57 279 178 321 232 9
11 31 -4 120 -85 60 -54 112 -103 115 -107 6 -9 65 49 111 109 12 16 25 31 28
34 3 3 23 29 44 58 l38 52 31 -17 c18 -10 38 -22 44 -26z"/>
</g>
</svg>
