<?xml version="1.0" standalone="no"?>
<!DOCTYPE svg PUBLIC "-//W3C//DTD SVG 20010904//EN"
 "http://www.w3.org/TR/2001/REC-SVG-20010904/DTD/svg10.dtd">
<svg version="1.0" xmlns="http://www.w3.org/2000/svg"
 width="90.000000pt" height="90.000000pt" viewBox="0 0 90.000000 90.000000"
 preserveAspectRatio="xMidYMid meet">
<metadata>
Created by potrace 1.11, written by Peter Selinger 2001-2013
</metadata>
<g transform="translate(0.000000,90.000000) scale(0.100000,-0.100000)"
fill="#000000" stroke="none">
<path d="M335 831 c-85 -21 -168 -89 -213 -175 -22 -44 -26 -64 -27 -141 0
-79 3 -96 27 -140 15 -27 45 -70 67 -95 23 -25 42 -49 42 -55 2 -10 6 -90 8
-132 1 -23 3 -23 146 -23 l145 0 0 28 c0 44 25 69 95 92 36 12 70 30 75 40 6
10 10 48 10 83 l0 64 41 12 c22 7 43 19 46 26 5 14 0 22 -60 97 -15 19 -31 55
-35 80 -33 175 -195 281 -367 239z m126 -258 c-35 -200 -47 -246 -63 -257 -11
-7 -21 -6 -31 2 -12 10 -10 34 18 173 33 162 46 192 74 164 12 -12 12 -25 2
-82z m175 -58 l18 -34 -37 -55 c-57 -87 -113 -71 -58 16 l28 44 -28 40 c-34
47 -34 48 -12 70 16 16 19 15 44 -15 15 -18 35 -47 45 -66z m-343 71 c3 -8 -7
-34 -22 -58 l-27 -43 27 -43 c29 -46 29 -72 -1 -72 -20 0 -90 90 -90 115 0 8
16 37 36 65 35 49 67 64 77 36z"/>
</g>
</svg>
