<?xml version="1.0" encoding="iso-8859-1"?>
<!-- Generator: Adobe Illustrator 19.0.0, SVG Export Plug-In . SVG Version: 6.00 Build 0)  -->
<svg version="1.1" id="Capa_1" xmlns="http://www.w3.org/2000/svg" xmlns:xlink="http://www.w3.org/1999/xlink" x="0px" y="0px"
	 viewBox="0 0 512 512" style="enable-background:new 0 0 512 512;" xml:space="preserve">
<g>
	<g>
		<g>
			<path d="M484.583,107.698l-84.25-40.125c-5.292-2.49-11.688-0.281-14.208,5.052c-2.542,5.313-0.271,11.677,5.042,14.219
				l78.167,37.229v110.594c0,5.896,4.771,10.667,10.667,10.667c5.896,0,10.667-4.771,10.667-10.667V117.333
				C490.667,113.219,488.292,109.469,484.583,107.698z"/>
			<path d="M32,245.333c5.896,0,10.667-4.771,10.667-10.667V124.073l80.563-38.354c5.313-2.542,7.583-8.906,5.042-14.219
				c-2.521-5.333-8.958-7.552-14.208-5.052l-86.646,41.25c-3.708,1.771-6.083,5.521-6.083,9.635v117.333
				C21.333,240.563,26.104,245.333,32,245.333z"/>
			<path d="M164.583,66.01L256,22.479l92.042,43.833c1.479,0.698,3.042,1.031,4.583,1.031c3.979,0,7.813-2.24,9.625-6.083
				c2.542-5.313,0.271-11.677-5.042-14.219l-96.625-46.01c-2.917-1.375-6.25-1.375-9.167,0l-96,45.708
				c-5.313,2.542-7.583,8.906-5.042,14.219C152.875,66.281,159.271,68.5,164.583,66.01z"/>
			<path d="M480,266.667c-5.896,0-10.667,4.771-10.667,10.667v110.594l-78.167,37.229c-5.313,2.542-7.583,8.906-5.042,14.219
				c1.813,3.844,5.646,6.083,9.625,6.083c1.542,0,3.104-0.333,4.583-1.031l84.25-40.125c3.708-1.771,6.083-5.521,6.083-9.635
				V277.333C490.667,271.438,485.896,266.667,480,266.667z"/>
			<path d="M123.229,426.292l-80.563-38.365V277.333c0-5.896-4.771-10.667-10.667-10.667s-10.667,4.771-10.667,10.667v117.333
				c0,4.115,2.375,7.865,6.083,9.635l86.646,41.26c1.479,0.698,3.042,1.031,4.583,1.031c3.979,0,7.813-2.24,9.625-6.083
				C130.813,435.198,128.542,428.833,123.229,426.292z"/>
			<path d="M348.042,445.688L256,489.521l-91.417-43.531c-5.292-2.5-11.688-0.271-14.208,5.052
				c-2.542,5.313-0.271,11.677,5.042,14.219l96,45.708c1.458,0.688,3.021,1.031,4.583,1.031s3.125-0.344,4.583-1.031l96.625-46.01
				c5.313-2.542,7.583-8.906,5.042-14.219C359.708,445.396,353.333,443.167,348.042,445.688z"/>
			<path d="M288.833,153.594l8.089-64.37l2.745,1.307c1.479,0.698,3.042,1.031,4.583,1.031c3.979,0,7.813-2.24,9.625-6.083
				c2.542-5.323,0.271-11.688-5.042-14.219l-48.25-22.969c-2.917-1.375-6.25-1.375-9.167,0l-47.833,22.771
				c-5.313,2.542-7.583,8.906-5.042,14.219c2.521,5.323,8.896,7.542,14.208,5.052l2.362-1.125l8.284,64.385l-44.688,23.531
				l-53.017-46.611c2.464-3.092,3.19-7.388,1.371-11.191c-2.521-5.344-8.938-7.552-14.208-5.052l-42.771,20.365
				c-3.708,1.771-6.083,5.521-6.083,9.635v48.542c0,5.896,4.771,10.667,10.667,10.667c3.736,0,6.862-2.031,8.767-4.936l65.9,26.967
				v61.208l-65.914,26.78c-1.908-2.892-5.026-4.915-8.753-4.915c-5.896,0-10.667,4.771-10.667,10.667v48.479
				c0,4.115,2.375,7.865,6.083,9.625l43.958,20.938c1.479,0.708,3.042,1.042,4.583,1.042c3.979,0,7.792-2.24,9.625-6.083
				c1.913-3.999,1.092-8.587-1.691-11.695l55.525-44.846l40.854,21.688l-7.893,64.363l-2.294-1.092
				c-5.292-2.5-11.688-0.292-14.208,5.052c-2.542,5.313-0.271,11.677,5.042,14.219l47.833,22.771
				c1.458,0.688,3.021,1.031,4.583,1.031s3.146-0.344,4.583-1.042l47.021-22.396c5.313-2.531,7.583-8.896,5.042-14.208
				c-2.563-5.344-8.938-7.573-14.208-5.052l-1.483,0.707l-7.892-64.353l40.854-21.688l56.729,45.879
				c-1.495,2.868-1.836,6.293-0.333,9.434c1.813,3.844,5.646,6.083,9.625,6.083c1.542,0,3.104-0.333,4.583-1.031l41.396-19.708
				c3.708-1.771,6.083-5.521,6.083-9.635v-48.542c0-5.896-4.771-10.667-10.667-10.667c-3.711,0-6.818,2.008-8.728,4.879
				l-65.939-27.379v-59.583l65.991-27.78c1.918,2.828,4.999,4.801,8.676,4.801c5.896,0,10.667-4.771,10.667-10.667v-48.521
				c0-4.115-2.375-7.865-6.083-9.635l-41.521-19.771c-5.313-2.521-11.688-0.281-14.208,5.052c-1.523,3.185-1.151,6.659,0.402,9.549
				l-56.777,45.794L288.833,153.594z M337.729,196.281l68.298-55.099l20.639,9.828v25.328l-78.813,33.182
				c-3.958,1.667-6.521,5.542-6.521,9.833v73.792c0,4.313,2.604,8.198,6.583,9.854l78.75,32.694v25.296l-20.648,9.831
				l-68.164-55.133c-3.313-2.677-7.938-3.135-11.708-1.125L272.583,343c-3.896,2.063-6.125,6.333-5.583,10.719l9.654,78.702
				L256,442.26l-20.655-9.835L245,353.719c0.542-4.385-1.688-8.656-5.583-10.719l-53.563-28.438
				c-3.75-2.021-8.375-1.552-11.708,1.115l-68.243,55.121L85.333,361v-25.242l78.688-31.977c4.021-1.635,6.646-5.542,6.646-9.885
				v-75.542c0-4.333-2.625-8.229-6.625-9.875l-78.708-32.215V151.01l20.346-9.689l64.466,56.668c2,1.75,4.5,2.656,7.042,2.656
				c1.688,0,3.396-0.406,4.979-1.229l57.729-30.396c3.938-2.073,6.167-6.375,5.604-10.802l-10.113-78.664L256,69.74l20.634,9.824
				l-9.884,78.686c-0.563,4.406,1.667,8.688,5.604,10.76l53.708,28.396c1.563,0.833,3.271,1.24,4.979,1.24
				C333.438,198.646,335.792,197.844,337.729,196.281z"/>
		</g>
	</g>
</g>
<g>
</g>
<g>
</g>
<g>
</g>
<g>
</g>
<g>
</g>
<g>
</g>
<g>
</g>
<g>
</g>
<g>
</g>
<g>
</g>
<g>
</g>
<g>
</g>
<g>
</g>
<g>
</g>
<g>
</g>
</svg>
